<svg width="24" height="24" viewBox="0 0 24 24" fill="none" xmlns="http://www.w3.org/2000/svg">
<path d="M20.8256 5.5186C20.7552 5.43436 20.6672 5.36659 20.5677 5.3201C20.4683 5.27361 20.3598 5.24952 20.25 5.24954H5.12625L4.66781 2.73142C4.60502 2.38579 4.42292 2.07317 4.15325 1.84805C3.88359 1.62293 3.54347 1.49959 3.19219 1.49954H1.5C1.30109 1.49954 1.11032 1.57856 0.96967 1.71921C0.829018 1.85986 0.75 2.05063 0.75 2.24954C0.75 2.44845 0.829018 2.63922 0.96967 2.77987C1.11032 2.92052 1.30109 2.99954 1.5 2.99954H3.1875L5.58375 16.1517C5.65434 16.5418 5.82671 16.9063 6.08344 17.2083C5.72911 17.5392 5.47336 17.9619 5.34455 18.4293C5.21575 18.8967 5.21892 19.3907 5.35371 19.8564C5.48851 20.3222 5.74966 20.7415 6.10821 21.0679C6.46676 21.3942 6.9087 21.6149 7.38502 21.7055C7.86134 21.796 8.35344 21.7529 8.80673 21.5808C9.26003 21.4088 9.65682 21.1145 9.9531 20.7307C10.2494 20.3469 10.4336 19.8886 10.4853 19.4065C10.537 18.9244 10.4541 18.4374 10.2459 17.9995H14.5041C14.3363 18.3508 14.2495 18.7353 14.25 19.1245C14.25 19.6437 14.404 20.1512 14.6924 20.5829C14.9808 21.0146 15.3908 21.351 15.8705 21.5497C16.3501 21.7484 16.8779 21.8004 17.3871 21.6991C17.8963 21.5978 18.364 21.3478 18.7312 20.9807C19.0983 20.6136 19.3483 20.1459 19.4496 19.6367C19.5508 19.1275 19.4989 18.5997 19.3002 18.12C19.1015 17.6403 18.7651 17.2304 18.3334 16.9419C17.9017 16.6535 17.3942 16.4995 16.875 16.4995H7.79719C7.62155 16.4995 7.45149 16.4378 7.31665 16.3253C7.18182 16.2127 7.09077 16.0564 7.05938 15.8836L6.76219 14.2495H17.6372C18.1641 14.2495 18.6743 14.0645 19.0788 13.7268C19.4833 13.3891 19.7564 12.9202 19.8506 12.4017L20.9906 6.13361C21.0099 6.02527 21.0051 5.91401 20.9766 5.80772C20.9481 5.70144 20.8966 5.60273 20.8256 5.5186ZM9 19.1245C9 19.347 8.93402 19.5646 8.8104 19.7496C8.68679 19.9346 8.51109 20.0788 8.30552 20.1639C8.09995 20.2491 7.87375 20.2713 7.65552 20.2279C7.43729 20.1845 7.23684 20.0774 7.0795 19.92C6.92217 19.7627 6.81502 19.5622 6.77162 19.344C6.72821 19.1258 6.75049 18.8996 6.83564 18.694C6.92078 18.4885 7.06498 18.3128 7.24998 18.1891C7.43499 18.0655 7.6525 17.9995 7.875 17.9995C8.17337 17.9995 8.45952 18.1181 8.6705 18.329C8.88147 18.54 9 18.8262 9 19.1245ZM18 19.1245C18 19.347 17.934 19.5646 17.8104 19.7496C17.6868 19.9346 17.5111 20.0788 17.3055 20.1639C17.1 20.2491 16.8738 20.2713 16.6555 20.2279C16.4373 20.1845 16.2368 20.0774 16.0795 19.92C15.9222 19.7627 15.815 19.5622 15.7716 19.344C15.7282 19.1258 15.7505 18.8996 15.8356 18.694C15.9208 18.4885 16.065 18.3128 16.25 18.1891C16.435 18.0655 16.6525 17.9995 16.875 17.9995C17.1734 17.9995 17.4595 18.1181 17.6705 18.329C17.8815 18.54 18 18.8262 18 19.1245ZM18.375 12.1336C18.3435 12.3069 18.2521 12.4636 18.1166 12.5762C17.9812 12.6888 17.8105 12.7502 17.6344 12.7495H6.48938L5.39906 6.74954H19.3509L18.375 12.1336Z" fill="black"/>
</svg>
