<?xml version="1.0" standalone="no"?>
<!DOCTYPE svg PUBLIC "-//W3C//DTD SVG 20010904//EN"
 "http://www.w3.org/TR/2001/REC-SVG-20010904/DTD/svg10.dtd">
<svg version="1.0" xmlns="http://www.w3.org/2000/svg"
 width="341.000000pt" height="506.000000pt" viewBox="0 0 341.000000 506.000000"
 preserveAspectRatio="xMidYMid meet">

<g transform="translate(0.000000,506.000000) scale(0.100000,-0.100000)"
fill="#000000" stroke="none">
<path d="M1586 4825 c-24 -8 -38 -9 -45 -2 -7 7 -15 6 -26 -3 -8 -7 -15 -10
-15 -7 0 3 -21 -1 -47 -8 -27 -7 -47 -17 -46 -22 2 -7 -11 -8 -38 -2 -44 10
-79 -2 -114 -41 -21 -23 -94 -60 -119 -60 -28 0 -208 -197 -273 -299 -23 -36
-43 -69 -43 -73 0 -4 -13 -35 -30 -69 -57 -119 -70 -186 -66 -354 2 -93 9
-173 18 -210 28 -107 30 -150 8 -170 -11 -10 -17 -22 -14 -26 3 -5 0 -9 -7 -9
-8 0 -10 -22 -7 -77 4 -62 12 -95 40 -158 50 -111 79 -210 81 -277 3 -74 30
-105 98 -114 27 -4 46 -10 44 -14 -3 -5 0 -21 6 -36 7 -20 7 -30 0 -32 -6 -2
-11 -9 -11 -14 0 -6 3 -8 7 -5 9 10 33 -41 33 -70 0 -13 4 -22 9 -19 5 4 12
-12 16 -35 5 -27 19 -54 41 -77 19 -20 34 -43 34 -52 0 -9 5 -21 10 -26 20
-20 39 -279 24 -318 -5 -12 -10 -14 -19 -6 -10 8 -17 6 -27 -8 -7 -10 -24 -25
-38 -32 l-25 -13 19 22 c34 37 -3 23 -46 -19 -23 -22 -46 -40 -51 -40 -4 0 -5
-4 -2 -10 3 -5 -3 -10 -14 -10 -12 0 -21 -4 -21 -10 0 -5 -4 -10 -9 -10 -6 0
-8 9 -6 20 2 11 0 20 -5 20 -10 0 -25 -57 -21 -80 2 -13 1 -13 -8 0 -12 17
-42 20 -54 5 -6 -6 -10 -6 -14 3 -2 6 -12 12 -21 12 -12 0 -13 -3 -4 -12 15
-15 16 -31 0 -22 -7 4 -8 3 -4 -5 4 -6 12 -9 17 -5 12 7 41 -15 34 -26 -3 -5
-1 -11 5 -15 5 -3 10 2 11 12 0 16 1 16 8 -1 5 -14 10 -16 15 -8 4 7 4 12 -1
12 -4 0 -1 4 7 10 17 11 30 -4 30 -37 0 -13 5 -23 10 -23 6 0 10 -6 10 -13 0
-22 37 -91 60 -112 12 -11 21 -15 20 -10 -4 19 0 35 8 35 5 0 8 -13 7 -30 -1
-16 2 -27 7 -24 5 3 8 11 7 17 -1 7 -1 19 0 27 1 12 4 12 12 -2 6 -11 6 -24 0
-35 -10 -20 2 -36 30 -41 18 -3 33 35 17 40 -6 2 -12 21 -13 41 -2 21 -9 45
-15 53 -7 7 -9 14 -5 14 4 0 24 -19 45 -42 31 -35 41 -41 51 -30 20 19 73 14
97 -8 18 -17 26 -19 42 -10 11 6 25 8 30 5 5 -3 16 7 24 23 23 45 76 56 134
27 24 -12 40 -14 74 -6 24 5 54 12 68 15 20 4 26 11 25 33 0 28 2 29 52 32 12
0 28 7 35 14 18 18 48 28 48 17 0 -6 5 -10 11 -10 5 0 7 4 4 10 -3 6 1 7 9 4
9 -3 14 -10 11 -14 -3 -4 7 -11 21 -14 20 -5 31 -1 49 19 13 14 31 25 39 25 9
0 45 29 80 65 35 36 69 65 75 65 6 0 14 12 17 27 4 15 18 39 31 53 13 13 28
40 34 60 16 48 53 119 83 159 14 19 23 37 21 41 -3 5 1 10 8 13 8 3 22 31 32
64 10 32 21 60 24 63 13 11 54 105 56 132 1 9 6 25 10 35 4 10 7 27 6 38 -2
17 0 17 8 5 9 -13 11 -13 11 2 0 9 3 24 7 34 4 11 2 15 -4 11 -5 -3 -16 5 -23
18 -12 22 -11 27 6 40 12 9 14 14 6 15 -7 0 -10 5 -6 11 4 7 1 10 -7 7 -8 -3
-15 -15 -17 -29 -3 -28 -33 -89 -44 -89 -4 0 -15 -15 -24 -32 -19 -37 -34 -49
-47 -41 -6 3 -8 -5 -5 -20 3 -18 1 -24 -8 -20 -7 2 -11 10 -8 18 3 7 -2 15
-10 18 -9 4 -16 12 -16 19 0 10 2 10 8 1 5 -8 13 -9 22 -3 12 8 12 10 1 10
-10 0 -12 9 -7 34 6 29 2 40 -21 65 -27 28 -143 99 -143 87 0 -3 19 -18 42
-33 24 -14 37 -28 31 -30 -10 -4 -10 -10 -1 -26 9 -19 9 -20 -3 -11 -8 6 -36
10 -64 8 -71 -5 -74 -6 -68 -21 4 -11 -2 -11 -33 1 -28 9 -47 10 -68 3 -21 -7
-31 -7 -34 1 -2 7 -11 8 -27 2 -15 -6 -27 -6 -30 1 -4 5 -12 6 -18 2 -19 -12
-80 -33 -98 -33 -9 0 -33 19 -53 41 -26 30 -36 51 -37 78 -2 53 2 84 12 103 5
10 10 115 10 234 0 236 -3 250 -53 239 -20 -5 -30 -2 -34 9 -6 16 -52 33 -114
43 -19 3 -43 10 -53 15 -11 5 -43 12 -73 14 -108 10 -139 18 -138 39 2 30 9
59 16 70 3 6 -2 28 -13 49 -29 60 -26 66 30 66 61 0 135 46 168 105 21 38 59
56 73 35 10 -16 97 11 121 36 22 23 46 34 35 15 -4 -5 5 -4 19 2 14 7 25 17
25 22 0 6 4 5 8 -2 5 -8 29 1 81 33 69 42 118 60 77 29 -11 -8 -17 -18 -13
-21 3 -3 33 15 67 41 63 49 113 66 103 36 -4 -14 -3 -14 9 -1 7 9 20 15 28 15
8 -1 21 3 28 8 8 6 12 5 12 -2 0 -7 5 -9 10 -6 14 9 43 -22 34 -37 -4 -7 4 -3
17 8 29 26 57 22 37 -4 -11 -15 -10 -15 8 0 19 16 20 16 32 -2 6 -11 9 -27 5
-37 -6 -16 -5 -16 10 -4 9 7 17 10 17 6 0 -4 7 -2 15 5 10 8 15 9 15 2 0 -6 7
-9 15 -6 8 4 15 5 16 3 0 -2 2 -24 5 -49 3 -25 9 -58 14 -75 4 -16 11 -52 15
-80 9 -66 41 -148 66 -171 37 -33 41 -54 49 -231 5 -97 13 -180 19 -187 6 -7
8 -16 4 -19 -3 -4 -2 -7 4 -7 18 0 43 77 43 133 1 56 30 155 50 167 16 10 51
166 55 245 2 33 8 74 15 90 19 47 14 214 -9 298 -10 39 -22 90 -26 112 -7 42
-71 137 -105 155 -10 6 -27 26 -36 45 -10 21 -45 57 -88 90 -39 29 -83 63 -98
74 -14 12 -38 21 -52 21 -17 0 -29 7 -32 18 -10 33 -20 45 -43 54 -20 7 -22 5
-17 -9 5 -15 3 -15 -11 2 -33 37 -94 57 -200 66 -59 4 -111 14 -125 22 -35 23
-161 36 -202 22z m582 -134 c3 -8 -1 -12 -9 -9 -7 2 -15 10 -17 17 -3 8 1 12
9 9 7 -2 15 -10 17 -17z m-1038 -30 c0 -5 -7 -12 -16 -15 -14 -5 -15 -4 -4 9
14 17 20 19 20 6z m1120 -31 c12 -8 9 -10 -13 -10 -16 0 -26 4 -22 10 8 12 16
12 35 0z m-791 -1214 c90 -17 100 -21 85 -36 -6 -6 -27 -4 -59 5 -55 17 -86
14 -42 -4 16 -6 39 -18 50 -27 l22 -16 -25 6 c-114 30 -174 38 -233 32 -46 -5
-59 -3 -63 9 -12 30 13 41 98 43 46 2 121 -4 167 -12z m-79 -66 c0 -5 -2 -10
-4 -10 -3 0 -8 5 -11 10 -3 6 -1 10 4 10 6 0 11 -4 11 -10z m96 -26 c39 -19
43 -31 12 -37 -14 -3 -9 -5 15 -6 20 0 37 -4 37 -8 -1 -25 -33 -39 -109 -48
-14 -2 -44 -8 -66 -14 -43 -11 -82 -5 -102 15 -22 21 -15 25 35 18 54 -7 51
-7 75 -5 10 0 16 5 13 10 -3 5 -15 7 -26 4 -12 -3 -20 0 -20 7 0 8 -11 11 -30
8 -16 -3 -27 -2 -25 1 3 3 -5 10 -17 17 -21 11 -21 13 -5 19 11 5 25 1 36 -9
28 -25 69 -20 99 13 33 35 35 35 78 15z m84 -13 c0 -4 -3 -11 -7 -14 -9 -9
-44 23 -37 34 6 10 44 -7 44 -20z m-353 -116 c61 -26 134 -29 213 -10 73 18
91 16 71 -9 -8 -10 -9 -16 -1 -21 16 -10 12 -112 -6 -148 -10 -18 -32 -49 -49
-70 -18 -21 -36 -54 -40 -73 -7 -42 -53 -68 -93 -53 -34 13 -35 13 -82 -31
-42 -38 -61 -46 -62 -25 0 6 -3 15 -7 20 -5 6 -11 23 -15 40 -4 16 -12 32 -17
36 -6 3 -11 16 -12 27 -1 12 -5 22 -9 22 -4 0 -5 9 -3 20 2 11 -1 20 -6 20 -6
0 -9 6 -6 13 6 17 -12 49 -24 42 -5 -4 -9 -2 -9 4 0 5 5 11 10 13 7 2 7 15 0
37 -7 26 -7 37 2 42 9 6 7 10 -5 15 -16 6 -16 8 -3 23 8 9 17 28 21 43 12 46
70 80 88 51 4 -7 24 -20 44 -28z m-210 -57 c2 -150 10 -188 39 -188 13 0 15
-7 18 -77 1 -9 -5 -18 -11 -20 -8 -3 -13 4 -13 19 0 34 -11 68 -20 63 -4 -2
-17 21 -28 52 -23 63 -24 157 -1 206 7 15 13 27 14 27 1 0 2 -37 2 -82z m1243
-395 c0 -15 -3 -23 -7 -20 -9 10 -10 56 -1 51 4 -3 8 -17 8 -31z m-234 -35 c4
-7 3 -8 -4 -4 -7 4 -12 2 -12 -5 0 -7 -3 -10 -6 -6 -6 5 3 27 11 27 2 0 7 -5
11 -12z m-186 -64 c0 -18 5 -21 38 -20 23 1 46 9 62 24 27 24 40 28 40 12 0
-5 7 -7 15 -4 21 8 19 -5 -6 -41 -11 -16 -24 -40 -29 -52 -5 -13 -16 -23 -24
-23 -7 0 -19 -7 -26 -15 -7 -8 -23 -15 -35 -15 -13 0 -25 -5 -27 -11 -5 -14
-73 -28 -89 -19 -7 5 -18 2 -27 -6 -15 -16 -42 -12 -79 12 -12 8 -29 14 -36
14 -8 0 -20 7 -27 15 -9 11 -16 12 -26 4 -19 -16 -32 -3 -40 37 -8 43 0 53 26
29 18 -16 20 -16 20 -2 0 15 6 19 26 16 4 0 11 5 16 13 6 7 11 9 14 3 4 -10
120 -13 130 -2 3 3 -11 17 -32 31 -26 17 -33 27 -23 30 30 10 65 11 102 2 28
-8 37 -15 37 -32z m300 -5 c7 -11 9 -23 6 -27 -3 -3 -6 1 -6 9 0 11 -2 11 -9
1 -4 -7 -4 -38 1 -69 6 -36 5 -60 -2 -68 -5 -6 -11 -24 -12 -39 -2 -21 -7 -26
-22 -22 -14 4 -16 2 -7 -7 15 -15 14 -48 -1 -44 -7 1 -14 -8 -16 -21 -3 -19
-6 -21 -18 -11 -14 11 -15 10 -18 -13 -1 -7 -9 -12 -18 -10 -9 1 -19 -2 -23
-8 -3 -5 0 -10 8 -10 14 0 27 -20 27 -42 0 -6 -6 -6 -15 2 -10 9 -15 9 -15 1
0 -6 -7 -11 -15 -11 -8 0 -15 5 -15 11 0 7 -10 9 -25 7 -17 -4 -32 3 -52 24
-15 16 -43 36 -61 45 -22 11 -29 19 -21 23 15 10 -20 29 -40 22 -10 -3 -11 0
-5 9 6 11 5 12 -8 2 -8 -7 -18 -10 -21 -6 -4 3 -7 -1 -7 -10 0 -9 -5 -19 -12
-23 -6 -4 -8 -3 -4 4 7 12 -28 27 -69 31 -25 2 -17 31 8 31 13 0 28 5 35 12 9
9 12 9 12 0 0 -7 9 -12 20 -12 11 0 20 6 20 13 0 8 4 7 10 -3 6 -10 10 -11 10
-2 0 6 7 12 15 12 8 0 15 -4 15 -10 0 -5 5 -10 11 -10 5 0 7 5 4 10 -3 6 0 10
7 10 10 0 9 3 -2 11 -12 9 -11 10 8 6 12 -3 22 -1 22 5 0 5 4 7 8 4 5 -3 26
11 47 30 21 19 45 35 52 35 33 3 38 6 35 18 -3 15 56 69 101 92 43 22 45 22
57 -2z m-763 -21 c15 -25 31 -78 22 -78 -5 0 -9 7 -9 16 0 9 -5 12 -12 8 -6
-4 -8 -3 -5 3 4 6 0 19 -8 29 -8 10 -15 22 -15 27 0 12 18 8 27 -5z m963 -43
c-7 -8 -18 -15 -24 -15 -6 0 -2 7 8 15 25 19 32 19 16 0z m-57 -50 c-3 -9 -8
-14 -10 -11 -3 3 -2 9 2 15 9 16 15 13 8 -4z m-35 -55 c-12 -16 -23 -30 -25
-30 -2 0 3 14 12 30 9 17 20 30 26 30 5 0 0 -13 -13 -30z m-636 -52 c-7 -7
-12 -8 -12 -2 0 6 3 14 7 17 3 4 9 5 12 2 2 -3 -1 -11 -7 -17z m-654 -513 c-3
-3 -9 2 -12 12 -6 14 -5 15 5 6 7 -7 10 -15 7 -18z m36 -34 c3 -5 -1 -14 -8
-20 -16 -13 -32 2 -21 19 8 12 22 13 29 1z m96 -19 c0 -4 -10 -13 -22 -21 -22
-13 -23 -13 -5 6 9 11 14 23 10 28 -5 4 -2 5 5 1 6 -4 12 -10 12 -14z m-50
-26 c0 -2 -7 -3 -16 -2 -9 0 -19 -5 -22 -13 -2 -8 0 -11 5 -8 6 4 10 -8 11
-26 l1 -32 -18 40 c-21 46 -12 71 20 54 10 -5 19 -11 19 -13z"/>
<path d="M1083 3145 c-3 -9 -3 -18 -1 -21 3 -3 8 4 11 16 6 23 -1 27 -10 5z"/>
<path d="M1600 2581 c0 -5 5 -13 10 -16 6 -3 10 -2 10 4 0 5 -4 13 -10 16 -5
3 -10 2 -10 -4z"/>
<path d="M950 1859 c0 -5 5 -7 10 -4 6 3 10 8 10 11 0 2 -4 4 -10 4 -5 0 -10
-5 -10 -11z"/>
<path d="M1750 3990 c-25 -11 -39 -19 -32 -19 16 -1 82 26 82 33 0 4 -1 6 -2
5 -2 -1 -23 -9 -48 -19z"/>
<path d="M1916 3553 c-14 -8 -26 -9 -26 -4 0 14 -30 7 -41 -10 -5 -8 -9 -10
-9 -4 0 5 -5 4 -11 -2 -8 -8 -8 -20 2 -43 14 -32 14 -32 74 -26 33 3 96 12
140 21 44 8 94 16 110 18 17 2 39 8 49 12 13 6 17 5 13 -2 -5 -8 5 -8 34 -1
51 13 50 41 -1 46 -112 10 -310 8 -334 -5z"/>
<path d="M1885 3408 c-27 -17 -44 -33 -37 -35 6 -3 10 -9 6 -14 -10 -17 61 -9
85 10 25 19 25 19 52 -10 40 -43 100 -35 119 16 10 27 44 24 60 -5 13 -25 60
-15 53 11 -4 15 -2 18 13 13 18 -7 18 -6 1 12 -13 14 -30 19 -67 17 -28 0 -48
2 -46 5 2 4 -39 8 -93 9 -93 3 -98 2 -146 -29z m185 -8 c0 -5 -4 -10 -10 -10
-5 0 -10 5 -10 10 0 6 5 10 10 10 6 0 10 -4 10 -10z"/>
<path d="M1915 3330 c-3 -4 -14 -6 -25 -3 -28 7 -25 -13 3 -21 20 -6 21 -7 4
-17 -21 -12 -9 -41 19 -45 11 -1 38 -5 60 -9 27 -5 44 -3 48 4 4 6 1 11 -7 11
-10 0 -13 7 -10 20 3 11 10 20 15 20 5 0 7 4 3 10 -3 5 -12 7 -20 4 -8 -4 -30
3 -50 14 -19 12 -37 17 -40 12z"/>
<path d="M2426 2825 c-9 -26 -7 -32 5 -12 6 10 9 21 6 23 -2 3 -7 -2 -11 -11z"/>
<path d="M910 2080 c-12 -8 -11 -10 7 -10 12 0 25 5 28 10 8 13 -15 13 -35 0z"/>
<path d="M2552 2064 c-13 -10 -11 -14 14 -30 16 -10 32 -22 35 -27 5 -7 19 39
19 63 0 11 -50 7 -68 -6z"/>
<path d="M847 1874 c3 -9 9 -12 12 -7 3 4 10 11 15 16 5 4 0 7 -12 7 -15 0
-20 -4 -15 -16z"/>
<path d="M870 1821 c11 -41 20 -51 20 -25 0 11 -7 29 -15 40 -13 17 -14 16 -5
-15z"/>
<path d="M897 1843 c-3 -5 -1 -17 4 -28 6 -17 7 -16 6 8 -1 28 -3 32 -10 20z"/>
<path d="M1115 1699 c-4 -6 -5 -12 -2 -15 2 -3 7 2 10 11 7 17 1 20 -8 4z"/>
<path d="M1676 1325 c-26 -19 -50 -35 -54 -35 -4 0 -7 -19 -8 -43 -1 -23 -4
-71 -9 -107 -8 -73 -11 -119 -25 -415 -15 -317 -15 -452 -1 -540 25 -150 31
-143 19 20 -7 84 -6 140 2 187 6 37 14 80 16 95 2 15 4 91 4 168 0 140 15 494
26 593 3 32 10 52 18 52 7 0 25 14 41 30 38 40 27 38 -29 -5z"/>
<path d="M1720 1170 c-26 -26 -25 -53 3 -86 45 -52 127 -20 112 45 -12 57 -76
80 -115 41z m65 -10 c-3 -5 -10 -10 -16 -10 -5 0 -9 5 -9 10 0 6 7 10 16 10 8
0 12 -4 9 -10z m4 -42 c0 -21 -1 -22 -8 -3 -8 19 -8 19 -19 0 -11 -19 -11 -19
-12 3 0 15 6 22 20 22 14 0 20 -6 19 -22z"/>
<path d="M1726 841 c-10 -10 -18 -34 -18 -52 -1 -39 31 -70 71 -68 l26 2 -25
4 c-69 13 -83 104 -20 126 13 5 13 6 -1 6 -9 1 -24 -8 -33 -18z"/>
<path d="M1763 829 c-34 -13 -32 -66 2 -75 31 -8 55 10 55 42 0 29 -27 45 -57
33z m35 -36 c-2 -9 -13 -18 -25 -19 -17 -3 -23 1 -23 16 0 15 7 20 26 20 18 0
25 -5 22 -17z"/>
<path d="M7 454 c-3 -3 -6 -107 -7 -230 l0 -224 124 0 125 0 11 33 10 32 -5
-33 c-3 -23 -1 -32 7 -30 6 2 13 17 15 33 6 43 13 44 13 2 0 -20 4 -37 9 -37
4 0 8 18 8 41 0 38 -2 40 -23 36 -17 -3 -24 0 -24 12 -1 14 -2 14 -14 -1 -13
-17 -32 -26 -23 -10 3 4 8 24 11 44 4 28 2 38 -8 38 -9 0 -12 9 -10 28 3 21 1
19 -9 -10 -15 -45 -32 -64 -23 -25 4 19 3 26 -4 22 -5 -3 -10 -1 -10 6 0 7 -7
21 -16 31 -16 17 -18 17 -31 0 -13 -15 -14 -14 -8 13 4 21 3 26 -4 15 -6 -8
-13 -11 -17 -7 -4 3 -1 14 7 24 12 15 12 16 -4 10 -16 -6 -18 -2 -16 27 4 39
-8 58 -21 36 -7 -11 -12 -12 -20 -4 -16 16 -21 56 -8 71 6 7 8 17 4 20 -4 4
-11 1 -16 -7 -5 -8 -12 -11 -17 -7 -4 4 -2 17 5 27 7 11 12 22 12 25 0 7 -15
6 -23 -1z m17 -79 c3 -8 1 -15 -4 -15 -6 0 -10 7 -10 15 0 8 2 15 4 15 2 0 6
-7 10 -15z m46 -75 c0 -5 -7 -7 -15 -4 -8 4 -15 8 -15 10 0 2 7 4 15 4 8 0 15
-4 15 -10z m-42 -25 c-3 -3 -9 2 -12 12 -6 14 -5 15 5 6 7 -7 10 -15 7 -18z
m199 -161 c-6 -20 -13 -31 -15 -25 -6 17 7 61 17 61 5 0 4 -16 -2 -36z"/>
<path d="M1711 434 c-12 -15 -21 -38 -21 -51 0 -24 46 -80 57 -69 3 3 -5 14
-17 24 -29 23 -31 73 -5 102 10 11 15 20 12 20 -3 0 -15 -12 -26 -26z"/>
<path d="M1816 427 c3 -10 9 -15 12 -12 3 3 0 11 -7 18 -10 9 -11 8 -5 -6z"/>
<path d="M1732 418 c-19 -19 -14 -46 12 -63 29 -19 54 -10 62 21 11 43 -42 74
-74 42z m48 -22 c0 -8 -9 -16 -20 -19 -14 -4 -20 0 -20 12 0 10 8 17 20 18 11
1 20 -4 20 -11z"/>
<path d="M1796 335 c-11 -8 -15 -15 -9 -15 6 0 16 7 23 15 16 19 11 19 -14 0z"/>
<path d="M248 205 c-3 -14 -1 -25 3 -25 5 0 9 11 9 25 0 14 -2 25 -4 25 -2 0
-6 -11 -8 -25z"/>
<path d="M271 204 c0 -11 3 -14 6 -6 3 7 2 16 -1 19 -3 4 -6 -2 -5 -13z"/>
<path d="M361 154 c0 -11 3 -14 6 -6 3 7 2 16 -1 19 -3 4 -6 -2 -5 -13z"/>
<path d="M265 150 c3 -5 8 -10 11 -10 2 0 4 5 4 10 0 6 -5 10 -11 10 -5 0 -7
-4 -4 -10z"/>
<path d="M332 45 c0 -17 2 -22 5 -12 2 9 2 23 0 30 -3 6 -5 -1 -5 -18z"/>
<path d="M441 44 c0 -11 3 -14 6 -6 3 7 2 16 -1 19 -3 4 -6 -2 -5 -13z"/>
<path d="M461 44 c0 -11 3 -14 6 -6 3 7 2 16 -1 19 -3 4 -6 -2 -5 -13z"/>
<path d="M351 14 c0 -11 3 -14 6 -6 3 7 2 16 -1 19 -3 4 -6 -2 -5 -13z"/>
</g>
</svg>
