<?xml version="1.0" standalone="no"?>
<!DOCTYPE svg PUBLIC "-//W3C//DTD SVG 20010904//EN"
 "http://www.w3.org/TR/2001/REC-SVG-20010904/DTD/svg10.dtd">
<svg version="1.0" xmlns="http://www.w3.org/2000/svg"
 width="564.000000pt" height="846.000000pt" viewBox="0 0 564.000000 846.000000"
 preserveAspectRatio="xMidYMid meet">

<g transform="translate(0.000000,846.000000) scale(0.100000,-0.100000)"
fill="#000000" stroke="none">
<path d="M2999 7830 c-25 -4 -75 -20 -111 -34 -60 -24 -71 -25 -114 -15 -84
19 -136 24 -239 23 -80 -1 -117 -6 -185 -29 -47 -15 -95 -36 -108 -46 -23 -18
-77 -81 -92 -108 -6 -12 -36 -15 -136 -17 -136 -1 -204 -18 -204 -48 0 -13 4
-14 25 -4 21 9 29 9 42 -4 16 -17 9 -43 -9 -32 -5 3 -28 -1 -51 -11 -23 -9
-64 -26 -92 -38 -53 -22 -95 -61 -95 -89 0 -21 -39 -88 -60 -105 -8 -7 -12
-13 -8 -13 4 0 -13 -19 -37 -41 -25 -23 -43 -45 -40 -49 9 -14 -59 -103 -102
-134 -24 -16 -43 -37 -43 -45 0 -9 -3 -27 -7 -41 -6 -23 -5 -24 11 -10 16 12
20 12 30 -1 6 -9 18 -14 26 -11 13 4 13 3 2 -11 -8 -9 -21 -13 -30 -10 -13 5
-14 3 -5 -7 15 -17 6 -39 -34 -76 -18 -17 -33 -36 -33 -42 0 -5 -7 -13 -16
-16 -9 -4 -14 -13 -10 -22 3 -8 2 -13 -3 -10 -10 7 -65 -73 -56 -82 3 -4 10 0
15 8 6 9 10 10 10 3 0 -6 -4 -14 -9 -17 -4 -3 -11 -33 -15 -67 -3 -34 -10 -67
-16 -74 -20 -24 -67 -378 -50 -383 5 -2 10 -17 10 -33 0 -16 4 -37 9 -47 18
-36 31 -90 33 -139 1 -28 6 -49 11 -46 5 3 8 -21 7 -53 -3 -76 9 -163 24 -189
7 -11 25 -60 40 -110 15 -49 33 -106 39 -125 6 -19 10 -39 9 -44 -2 -4 2 -14
9 -22 15 -19 3 -65 -27 -97 -29 -32 -50 -86 -59 -154 -5 -35 -4 -44 4 -33 8
12 11 8 11 -17 0 -18 -5 -33 -11 -33 -5 0 -7 5 -4 10 3 6 2 10 -3 10 -6 0 -15
-28 -21 -63 -13 -77 -4 -137 44 -287 19 -58 43 -153 55 -210 12 -57 32 -129
46 -159 14 -31 31 -67 37 -81 20 -45 58 -90 89 -106 26 -13 38 -14 70 -5 21 7
42 9 47 6 11 -6 20 -70 26 -200 3 -55 7 -122 10 -150 2 -27 8 -117 11 -200 7
-165 8 -176 19 -286 l7 -77 -83 -54 c-46 -30 -115 -74 -154 -98 -38 -24 -86
-53 -105 -66 -19 -12 -53 -33 -76 -47 -88 -55 -183 -181 -224 -300 -22 -62
-39 -248 -27 -281 6 -14 11 -14 44 5 21 11 42 25 47 30 6 5 15 9 20 9 11 0
-94 -79 -105 -80 -3 0 -46 -23 -95 -52 -49 -28 -123 -70 -164 -93 -41 -23 -91
-53 -110 -66 -20 -13 -60 -35 -90 -48 -30 -13 -80 -36 -110 -52 -30 -15 -107
-48 -170 -74 -121 -49 -175 -77 -246 -129 l-43 -31 0 -877 -1 -878 2820 0
2820 0 0 1995 c0 1635 -2 1995 -13 1995 -7 0 -28 11 -47 25 -45 33 -72 32
-134 -7 -28 -17 -114 -67 -191 -110 -77 -44 -151 -89 -164 -101 -39 -36 -62
-100 -57 -154 3 -27 10 -113 16 -193 6 -80 20 -269 31 -420 10 -151 31 -412
44 -580 14 -168 29 -366 35 -440 6 -74 12 -156 14 -182 3 -30 0 -48 -6 -48 -6
0 -40 11 -77 24 -36 13 -111 31 -166 41 -55 9 -102 19 -104 21 -2 2 -16 165
-32 361 -45 583 -56 693 -80 768 -43 142 -103 226 -193 273 -45 23 -65 27
-173 30 -68 2 -123 7 -123 11 0 4 10 7 23 7 20 -1 22 4 24 54 2 30 7 87 12
125 6 39 7 79 4 90 -5 17 -4 18 11 6 9 -8 16 -9 16 -3 0 6 -5 14 -10 17 -6 4
-7 11 -4 17 4 6 10 5 15 -3 5 -8 9 -9 9 -3 0 6 -6 17 -14 23 -11 10 -16 8 -21
-8 -3 -12 -10 -21 -15 -21 -5 0 -1 13 8 30 9 16 20 30 24 30 4 0 4 16 1 37 -4
22 -2 34 3 30 6 -3 11 4 12 16 3 42 14 87 21 83 6 -4 9 20 14 89 1 17 5 32 9
35 8 6 26 115 32 195 2 28 5 55 6 60 1 6 1 12 0 15 -5 12 -6 50 -2 50 3 0 13
-7 22 -15 23 -21 73 -22 104 -2 67 44 89 164 85 462 -2 105 1 240 5 300 6 95
4 126 -16 231 -21 104 -22 122 -10 134 11 10 13 27 8 69 -11 102 -16 136 -27
168 -21 65 -16 245 8 303 13 32 12 52 -8 142 -11 51 -21 106 -20 121 0 15 -3
26 -7 23 -4 -2 -7 18 -6 45 0 28 -2 45 -6 38 -6 -8 -11 -5 -19 10 -7 12 -9 27
-5 33 4 7 3 8 -5 4 -6 -4 -14 0 -18 11 -3 10 -17 33 -30 51 -14 18 -23 36 -20
39 3 2 17 -13 32 -35 30 -46 72 -67 50 -26 -15 29 -76 94 -89 94 -19 0 -77 53
-72 65 2 7 -1 18 -7 24 -8 8 -6 11 9 12 17 0 17 1 -4 11 l-22 11 29 18 c23 14
32 29 41 74 12 57 7 138 -11 165 -5 8 -9 11 -9 5 0 -22 -32 52 -42 98 -5 27
-16 51 -24 54 -8 3 -11 9 -8 15 3 5 -2 18 -11 28 -9 10 -25 33 -35 52 -10 18
-23 32 -29 31 -6 -2 -11 4 -11 12 0 26 -32 83 -54 95 -12 6 -32 36 -46 66 -14
30 -28 54 -32 54 -5 0 -8 5 -8 11 0 7 -8 19 -18 28 -10 9 -36 39 -58 68 -23
29 -44 50 -47 47 -3 -3 -39 28 -79 70 -40 42 -80 76 -87 76 -10 0 -7 -8 10
-26 23 -25 23 -26 2 -15 -23 12 -37 29 -38 46 -1 6 -7 9 -14 7 -7 -1 -15 6
-18 17 -7 26 -69 42 -174 45 -48 1 -95 8 -109 16 -42 23 -141 50 -235 65 -98
16 -145 17 -216 5z m-261 -72 c33 -10 44 -28 16 -28 -16 0 -104 25 -139 40
-27 11 80 1 123 -12z m917 -48 c4 -6 24 -20 47 -31 49 -25 44 -36 -8 -14 -20
8 -53 17 -73 19 -43 4 -71 15 -71 27 0 12 97 11 105 -1z m-1285 -69 c0 -5 -4
-21 -9 -35 -7 -17 -7 -26 2 -29 9 -3 9 -8 1 -17 -9 -9 -24 -9 -70 1 -33 7 -63
16 -69 21 -10 9 33 45 48 40 4 -1 18 4 30 13 24 17 67 20 67 6z m187 -16 c36
-32 17 -32 -22 0 -16 13 -25 24 -18 25 7 0 25 -11 40 -25z m-82 -2 c41 -20 44
-30 10 -39 -33 -8 -22 -24 16 -24 18 0 28 4 24 10 -9 14 7 12 29 -5 18 -13 17
-14 -5 -19 -56 -12 -93 -10 -83 5 5 9 -1 10 -20 5 -22 -5 -28 -2 -36 20 -8 21
-7 31 6 45 21 23 16 23 59 2z m650 -24 c11 -17 -1 -21 -15 -4 -8 9 -8 15 -2
15 6 0 14 -5 17 -11z m730 1 c3 -6 -1 -7 -9 -4 -18 7 -21 14 -7 14 6 0 13 -4
16 -10z m-1895 -20 c0 -5 -4 -10 -9 -10 -6 0 -13 5 -16 10 -3 6 1 10 9 10 9 0
16 -4 16 -10z m53 -7 c-7 -2 -21 -2 -30 0 -10 3 -4 5 12 5 17 0 24 -2 18 -5z
m602 -13 c3 -5 1 -10 -4 -10 -6 0 -11 5 -11 10 0 6 2 10 4 10 3 0 8 -4 11 -10z
m1505 -274 c0 -6 -9 0 -20 14 -26 33 -25 52 0 21 11 -13 20 -28 20 -35z m237
-508 c-3 -8 -6 -5 -6 6 -1 11 2 17 5 13 3 -3 4 -12 1 -19z m-917 -17 c0 -5
-12 -12 -27 -14 -20 -3 -17 -5 12 -5 22 0 58 -5 80 -10 84 -21 139 -30 152
-25 7 3 15 -1 18 -8 3 -8 17 -15 31 -15 14 -1 34 -10 45 -20 18 -16 19 -16 20
2 0 16 1 16 9 -3 5 -13 13 -23 17 -23 4 0 17 -7 27 -15 16 -12 17 -17 6 -30
-7 -8 -10 -19 -6 -22 4 -4 11 -1 16 7 8 13 10 12 10 -2 0 -11 8 -18 20 -18 10
0 24 -9 30 -21 11 -19 13 -19 35 -5 29 19 39 20 29 4 -5 -8 -2 -9 12 -4 38 16
54 18 54 8 0 -6 8 -18 17 -28 13 -13 18 -37 19 -103 1 -47 -3 -92 -8 -98 -8
-9 -6 -13 6 -13 9 0 16 -8 16 -20 0 -13 -5 -18 -15 -14 -20 8 -20 -20 1 -40
14 -15 14 -16 -1 -16 -12 0 -15 -5 -10 -17 4 -10 9 -27 12 -38 4 -19 4 -19
-10 -2 -19 23 -26 11 -20 -31 4 -23 10 -32 19 -28 8 3 14 -1 14 -10 0 -8 -7
-17 -15 -20 -11 -5 -12 -11 -5 -24 6 -10 10 -46 10 -79 0 -42 4 -61 13 -62 10
0 10 -2 0 -6 -15 -5 -18 -33 -4 -33 5 0 13 9 16 20 3 11 10 20 15 20 11 0 19
-36 13 -60 -4 -15 -11 -19 -24 -15 -13 5 -19 1 -19 -10 0 -9 5 -13 10 -10 6 4
18 4 27 1 14 -6 14 -8 -1 -19 -13 -9 -16 -20 -11 -40 8 -30 25 -37 25 -10 0
13 3 14 11 6 9 -9 8 -16 -4 -27 -25 -25 -31 -56 -14 -74 23 -25 30 -72 11 -72
-26 0 -54 20 -54 38 0 27 -105 92 -147 92 -18 0 -24 -4 -19 -15 5 -13 -6 -14
-82 -9 -48 3 -102 6 -120 7 -22 1 -31 6 -27 15 3 7 0 10 -6 7 -6 -4 -29 -9
-52 -11 -39 -4 -79 -24 -47 -24 9 0 5 -9 -10 -25 -25 -27 -51 -35 -30 -10 8 9
8 15 2 15 -6 0 -25 -19 -43 -41 -32 -40 -32 -41 -8 -35 21 6 20 3 -11 -23 -23
-19 -38 -26 -45 -20 -6 6 -5 13 5 19 8 5 11 10 6 10 -17 0 -56 -43 -56 -61 0
-11 -13 -22 -34 -30 -30 -11 -51 -38 -47 -62 1 -4 -8 -28 -20 -54 -22 -48 -22
-111 1 -153 6 -11 7 -20 3 -20 -4 0 -3 -4 2 -8 20 -14 37 -60 30 -81 -4 -14
-2 -23 9 -27 8 -3 12 -12 9 -21 -4 -10 0 -14 13 -11 17 3 19 -3 17 -47 -1 -38
0 -44 7 -25 l8 25 1 -27 c1 -14 -5 -28 -11 -31 -9 -3 -6 -11 10 -26 12 -12 22
-27 22 -33 0 -9 3 -9 12 0 10 10 10 15 1 20 -16 10 -26 73 -15 101 7 19 3 34
-14 65 -27 47 -23 59 14 49 24 -6 25 -4 14 9 -25 31 7 29 35 -1 16 -17 39 -31
53 -32 45 -4 71 1 65 11 -3 6 2 10 12 11 10 0 13 3 6 6 -7 2 -13 11 -13 18 0
7 -9 15 -20 18 -11 3 -20 13 -20 22 0 12 5 15 16 11 9 -4 23 -1 30 5 7 6 29
11 48 12 26 1 36 6 41 21 6 20 7 20 14 -3 3 -14 13 -27 21 -29 13 -4 13 -3 2
11 -11 13 -10 16 8 22 24 7 53 -11 44 -29 -3 -6 3 -1 12 12 19 25 39 30 30 7
-6 -16 9 -21 18 -6 8 13 56 20 62 9 3 -5 11 -2 18 8 11 15 14 15 28 0 9 -9 21
-16 27 -16 6 0 11 -7 11 -15 0 -8 -5 -15 -11 -15 -8 0 -8 -4 1 -15 9 -11 16
-12 30 -3 10 7 17 15 14 19 -2 4 5 5 15 2 11 -3 17 -11 15 -18 -6 -15 -75 -45
-104 -45 -11 0 -20 -4 -20 -9 0 -11 136 -8 147 2 3 4 0 7 -8 7 -24 0 13 20 37
20 13 0 24 8 27 19 4 18 67 36 67 19 0 -4 15 -8 33 -8 46 0 50 -8 20 -36 -25
-23 -25 -25 -8 -43 9 -11 27 -21 38 -23 25 -4 47 -43 51 -93 3 -40 -3 -44 -22
-14 -7 11 -18 19 -24 17 -16 -6 -19 -38 -3 -38 16 0 30 -33 16 -38 -6 -2 -8
-14 -5 -28 3 -13 3 -32 -1 -41 -6 -16 -8 -16 -16 5 -4 12 -6 30 -3 40 5 14 4
14 -4 3 -8 -12 -14 -12 -25 -3 -11 10 -17 9 -28 -4 -11 -14 -10 -18 6 -31 11
-8 19 -21 17 -29 -2 -8 4 -17 13 -20 18 -7 21 -36 2 -32 -14 3 -17 -9 -9 -31
3 -7 1 -16 -4 -20 -5 -3 -10 -19 -11 -36 -5 -54 -6 -58 -25 -63 -15 -3 -17
-11 -12 -43 6 -35 5 -37 -15 -32 -15 4 -29 -1 -42 -16 -11 -11 -26 -22 -34
-22 -8 -1 -21 -2 -27 -2 -26 -2 -94 42 -106 67 -6 14 -16 25 -21 24 -5 -2 -23
10 -42 26 -18 16 -40 30 -48 31 -9 0 -41 13 -72 28 -68 34 -116 41 -136 21
-16 -15 -10 -50 6 -40 14 9 41 -5 41 -21 0 -8 4 -12 9 -9 12 8 82 -22 108 -47
17 -15 20 -24 12 -33 -9 -11 -16 -10 -36 3 -25 17 -26 17 -15 -3 6 -11 18 -26
26 -34 17 -13 22 -40 7 -40 -5 0 -11 9 -14 20 -3 12 -11 18 -19 15 -18 -7 -64
32 -60 51 1 7 -8 16 -22 20 -29 7 -45 42 -26 54 8 5 4 7 -12 7 -18 -2 -24 -7
-21 -18 3 -9 -1 -20 -8 -25 -13 -8 -98 81 -99 104 0 6 -4 12 -9 12 -5 0 -14
14 -20 30 -5 17 -14 29 -18 28 -5 -2 -19 7 -32 19 -14 13 -27 20 -30 17 -3 -3
4 -13 17 -21 12 -9 22 -20 22 -26 0 -5 11 -25 25 -43 28 -37 33 -88 10 -110
-8 -9 -15 -28 -15 -43 0 -18 -6 -27 -17 -29 -75 -8 -93 -15 -93 -36 0 -15 -12
-27 -41 -41 l-41 -19 -39 22 c-22 13 -43 20 -48 18 -11 -7 -81 63 -81 80 0 7
-3 20 -7 30 -4 10 -2 15 3 11 6 -3 10 18 10 51 1 106 17 172 40 172 8 0 14 5
14 10 0 6 -7 10 -15 10 -18 0 -20 27 -2 33 9 3 9 9 0 28 -22 46 -23 60 -5 87
31 48 19 125 -19 115 -16 -5 -17 -2 -9 28 13 44 13 42 -10 36 -17 -4 -20 0
-21 26 -1 55 -24 144 -42 164 -9 11 -17 25 -17 31 0 7 -9 12 -20 12 -22 0 -26
10 -9 27 9 9 2 16 -25 27 -25 10 -36 21 -36 35 0 12 -4 21 -9 21 -5 0 -16 6
-23 13 -24 21 -58 38 -68 32 -5 -3 -11 4 -15 15 -3 11 -11 20 -16 20 -5 0 -9
6 -9 13 0 8 -10 22 -21 33 -21 19 -22 19 -15 -3 10 -33 -1 -28 -24 10 -16 26
-20 28 -21 12 -1 -11 -1 -23 0 -27 0 -5 -4 -8 -10 -8 -6 0 -9 9 -6 20 4 17 0
20 -24 20 -31 0 -36 -9 -18 -27 6 -6 -15 -2 -47 8 -51 17 -59 17 -74 4 -9 -8
-31 -15 -48 -15 -17 0 -33 -4 -36 -9 -3 -5 -18 -11 -33 -13 -16 -3 -36 -9 -46
-13 -13 -5 -16 -3 -12 8 10 25 -42 31 -72 7 -14 -11 -37 -20 -51 -20 -14 0
-23 -3 -19 -6 3 -4 -1 -14 -10 -23 -13 -12 -35 -16 -95 -15 -43 1 -82 5 -86 9
-4 3 -8 32 -9 63 -1 31 -4 73 -6 92 -3 19 -1 40 3 45 5 6 5 28 0 50 -5 22 -5
42 -1 45 12 8 20 75 11 90 -4 7 -4 21 2 30 8 12 6 25 -6 48 -12 23 -14 44 -10
73 6 33 3 45 -9 54 -14 10 -15 17 -6 44 6 18 8 35 5 38 -8 9 -35 -28 -36 -48
0 -9 -5 -30 -11 -47 -11 -33 -27 -34 -62 -4 -13 12 -15 17 -5 24 10 6 10 8 1
8 -8 0 -13 15 -13 39 0 22 -4 43 -10 46 -16 10 -12 29 12 55 18 19 19 24 7 34
-8 6 -13 22 -11 34 3 18 8 23 23 19 10 -3 17 -1 13 4 -3 5 -14 9 -25 9 -12 0
-19 5 -17 13 7 19 38 20 58 2 17 -15 20 -14 46 11 l29 26 -35 -7 -35 -7 25 22
c15 13 33 20 47 17 12 -2 20 -1 18 3 -3 5 2 10 10 14 8 3 15 12 15 21 0 8 5
15 10 15 6 0 10 6 10 14 0 8 7 16 15 20 8 3 15 12 15 20 0 18 79 37 97 23 9
-6 15 -4 19 7 7 19 34 22 34 4 0 -10 2 -10 9 0 4 7 49 24 98 37 50 13 105 31
122 39 16 9 43 16 60 16 16 0 33 5 36 10 3 6 15 10 25 10 10 0 20 6 23 13 3 9
8 9 17 1 15 -15 50 -6 50 12 0 18 8 18 27 -1 8 -8 19 -13 24 -9 6 3 50 6 99 6
50 0 90 4 90 9 0 16 26 10 45 -11 18 -20 55 -19 82 2 7 6 15 3 21 -8 8 -14 23
-17 81 -16 44 0 79 7 92 15 13 10 34 13 60 10 22 -3 50 -1 62 5 40 20 87 27
87 13z m-1440 -251 c0 -5 -4 -10 -10 -10 -5 0 -10 5 -10 10 0 6 5 10 10 10 6
0 10 -4 10 -10z m-90 -60 c0 -5 -5 -10 -11 -10 -5 0 -7 5 -4 10 3 6 8 10 11
10 2 0 4 -4 4 -10z m2510 -117 c11 -30 19 -58 16 -60 -5 -5 -32 54 -46 100
-15 49 8 19 30 -40z m-310 -2 c0 -21 -16 -2 -25 29 -7 24 -7 24 9 5 8 -11 16
-27 16 -34z m-2154 -238 c-10 -10 -19 5 -10 18 6 11 8 11 12 0 2 -7 1 -15 -2
-18z m-6 -43 c0 -5 -4 -10 -10 -10 -5 0 -10 5 -10 10 0 6 5 10 10 10 6 0 10
-4 10 -10z m2136 -2 c0 -7 4 -13 9 -13 6 0 9 6 9 13 -1 6 4 12 12 12 10 0 14
-13 14 -40 0 -38 -13 -54 -23 -27 -4 9 -8 8 -16 -3 -9 -13 -11 -12 -11 5 0 11
-3 30 -6 43 -4 12 -2 22 4 22 5 0 9 -6 8 -12z m-2166 -13 c0 -9 -6 -12 -15 -9
-8 4 -15 10 -15 15 0 5 7 9 15 9 8 0 15 -7 15 -15z m44 -116 c-3 -5 -10 -7
-15 -3 -5 3 -7 10 -3 15 3 5 10 7 15 3 5 -3 7 -10 3 -15z m-37 -221 c-3 -7 -5
-2 -5 12 0 14 2 19 5 13 2 -7 2 -19 0 -25z m43 -8 c0 -5 -4 -10 -10 -10 -5 0
-10 5 -10 10 0 6 5 10 10 10 6 0 10 -4 10 -10z m1685 -20 c-3 -5 -11 -10 -16
-10 -6 0 -7 5 -4 10 3 6 11 10 16 10 6 0 7 -4 4 -10z m-864 -127 c13 -16 12
-17 -3 -4 -10 7 -18 15 -18 17 0 8 8 3 21 -13z m-681 -33 c0 -5 -5 -10 -11
-10 -5 0 -7 5 -4 10 3 6 8 10 11 10 2 0 4 -4 4 -10z m-85 -10 c3 -5 -1 -10
-10 -10 -9 0 -13 5 -10 10 3 6 8 10 10 10 2 0 7 -4 10 -10z m1901 -50 c25 -8
31 -15 27 -30 -3 -13 -14 -20 -28 -20 -13 0 -25 -5 -27 -11 -3 -9 -10 -9 -23
-1 -11 5 -68 12 -127 14 -97 3 -144 15 -126 33 5 5 130 17 233 23 22 1 54 -3
71 -8z m-318 -47 c2 -8 -6 -13 -23 -13 -15 0 -39 -8 -53 -19 -15 -10 -39 -21
-53 -24 -21 -5 -28 -3 -32 13 -3 13 0 20 9 20 8 0 14 4 14 8 0 26 129 40 138
15z m-822 -23 c30 -13 43 -25 46 -44 5 -26 -14 -37 -27 -16 -3 5 -11 7 -18 4
-7 -2 -29 2 -48 9 -35 15 -164 14 -259 -1 -25 -4 -83 -7 -130 -7 -47 0 -88 -4
-92 -10 -5 -6 -14 -4 -24 7 -15 15 -15 18 -1 32 9 10 33 16 59 16 24 0 48 4
54 9 11 12 90 18 264 18 108 1 143 -3 176 -17z m1048 -15 c29 -13 28 -13 -32
-10 -34 2 -73 0 -85 -4 -15 -6 -26 -4 -34 4 -10 11 -10 15 0 18 25 10 121 4
151 -8z m-163 -20 c11 6 11 5 2 -5 -12 -14 -33 -6 -33 13 0 8 3 7 9 -2 5 -8
14 -10 22 -6z m444 -5 c-3 -5 -11 -10 -16 -10 -6 0 -7 5 -4 10 3 6 11 10 16
10 6 0 7 -4 4 -10z m-2272 -63 c3 -22 2 -35 -4 -32 -5 4 -9 -3 -9 -14 0 -14
-6 -21 -20 -21 -11 0 -20 -4 -20 -8 0 -5 9 -17 20 -27 21 -19 26 -50 10 -60
-5 -3 -10 -2 -10 3 0 5 -9 12 -21 15 -17 5 -19 10 -13 44 3 21 14 44 23 51 9
7 15 18 14 23 -2 5 2 9 8 9 5 0 7 5 4 10 -6 9 3 56 9 48 2 -2 6 -20 9 -41z
m1907 6 c0 -13 -3 -13 -15 -3 -8 7 -15 19 -15 27 0 13 3 13 15 3 8 -7 15 -19
15 -27z m-1192 20 c-10 -2 -28 -2 -40 0 -13 2 -5 4 17 4 22 1 32 -1 23 -4z
m97 -16 c40 -22 30 -21 -30 3 -27 11 -39 18 -25 17 14 -2 39 -10 55 -20z
m1135 13 c0 -5 -4 -10 -10 -10 -5 0 -10 5 -10 10 0 6 5 10 10 10 6 0 10 -4 10
-10z m-1307 -7 c-7 -2 -19 -2 -25 0 -7 3 -2 5 12 5 14 0 19 -2 13 -5z m1167
-33 c0 -5 -12 -10 -26 -10 -14 0 -23 4 -19 10 3 6 15 10 26 10 10 0 19 -4 19
-10z m-1110 -42 c0 -6 -7 -5 -15 2 -8 7 -15 17 -15 22 0 6 7 5 15 -2 8 -7 15
-17 15 -22z m40 22 c0 -5 -4 -10 -10 -10 -5 0 -10 5 -10 10 0 6 5 10 10 10 6
0 10 -4 10 -10z m40 0 c0 -5 -7 -10 -15 -10 -8 0 -15 5 -15 10 0 6 7 10 15 10
8 0 15 -4 15 -10z m780 -10 c0 -5 -4 -10 -10 -10 -5 0 -10 -5 -10 -11 0 -6 8
-8 19 -4 16 5 18 2 14 -15 -7 -27 -29 -36 -48 -20 -18 15 -20 56 -2 63 21 9
37 7 37 -3z m-1529 -13 c-1 -12 -15 -9 -19 4 -3 6 1 10 8 8 6 -3 11 -8 11 -12z
m60 -17 c5 0 9 -7 9 -15 0 -31 -25 -14 -26 18 -1 17 1 24 3 15 2 -10 9 -18 14
-18z m147 14 c6 -2 12 -10 12 -18 0 -13 -6 -12 -40 3 -22 10 -43 21 -47 25 -6
6 45 -1 75 -10z m1562 6 c0 -5 -4 -10 -9 -10 -6 0 -13 5 -16 10 -3 6 1 10 9
10 9 0 16 -4 16 -10z m-944 -11 c3 -6 2 -14 -3 -18 -5 -3 -10 -16 -10 -28 -2
-23 14 -26 119 -24 20 0 40 -4 43 -9 11 -18 27 -10 22 10 -4 15 0 20 14 20 11
0 19 -7 19 -17 0 -15 2 -16 10 -3 8 12 11 13 22 2 11 -11 9 -16 -6 -28 -11 -8
-25 -14 -32 -14 -7 0 -14 -6 -17 -12 -2 -7 -3 -5 -2 5 4 21 -23 23 -31 3 -3
-8 -12 -12 -21 -9 -12 5 -14 1 -8 -15 5 -16 2 -22 -10 -22 -9 0 -27 -11 -41
-25 -14 -14 -31 -25 -38 -25 -7 0 -25 -9 -40 -21 -23 -18 -36 -20 -109 -16
-45 2 -100 7 -122 11 -22 4 -65 11 -95 17 -82 14 -91 34 -10 24 36 -5 84 -8
108 -7 23 0 42 -2 42 -6 0 -4 26 -8 58 -8 31 -1 49 0 39 3 -11 3 -16 11 -13
19 3 8 4 14 3 15 -1 0 -38 2 -82 5 -209 11 -208 11 -232 41 -32 40 -29 45 21
41 36 -2 46 0 50 14 5 22 26 24 26 3 0 -21 22 -19 48 5 30 28 46 26 38 -5 -4
-14 -2 -25 4 -25 5 0 10 6 10 14 0 24 21 30 27 7 3 -12 13 -21 25 -21 15 0 18
5 13 21 -6 17 -3 20 12 17 11 -2 17 -11 15 -22 -2 -11 2 -17 10 -14 7 3 14 14
16 26 4 25 22 30 22 7 0 -22 17 -18 23 5 3 11 12 20 20 20 10 0 13 8 9 25 -3
18 0 25 11 25 9 0 19 -5 23 -11z m1373 -13 c10 -12 8 -13 -8 -9 -12 3 -18 9
-15 14 7 12 10 11 23 -5z m-2067 -28 c-15 -15 -43 -2 -36 16 5 12 10 13 26 5
14 -8 17 -14 10 -21z m-115 -44 c-8 -8 -47 10 -47 22 0 12 5 11 25 -2 14 -9
24 -18 22 -20z m2716 -91 c-8 -33 -9 -29 -9 37 -1 66 0 71 8 38 6 -23 6 -53 1
-75z m-2674 68 c-15 -5 -22 6 -14 19 6 9 10 9 16 -1 5 -8 4 -15 -2 -18z m128
23 c-3 -3 -12 -4 -19 -1 -8 3 -5 6 6 6 11 1 17 -2 13 -5z m-72 -14 c-3 -5 -13
-10 -21 -10 -8 0 -12 5 -9 10 3 6 13 10 21 10 8 0 12 -4 9 -10z m121 -19 c-17
-19 -16 -19 46 -15 l63 4 -47 -13 c-26 -8 -53 -18 -60 -24 -20 -15 -96 -32
-120 -25 -20 5 -20 6 -3 19 17 12 17 13 -10 13 -15 0 -26 3 -22 6 10 10 131
53 151 53 18 1 18 0 2 -18z m1404 9 c11 -8 7 -9 -15 -4 -37 8 -45 14 -19 14
10 0 26 -5 34 -10z m-1637 -40 c25 0 36 -4 31 -11 -3 -6 -15 -9 -25 -6 -12 3
-19 0 -19 -9 0 -17 -42 -28 -75 -20 -51 13 -22 60 30 50 11 -2 37 -4 58 -4z
m1267 -4 c0 -3 -4 -8 -10 -11 -5 -3 -10 -1 -10 4 0 6 5 11 10 11 6 0 10 -2 10
-4z m-904 -26 c27 0 34 -4 34 -19 0 -13 -8 -21 -22 -23 -13 -2 -24 -11 -26
-22 -3 -16 0 -18 19 -11 52 17 109 16 226 -4 138 -23 223 -20 287 10 22 11 46
19 53 19 8 0 27 7 43 15 27 14 30 14 30 0 0 -14 -17 -39 -53 -77 -18 -19 -18
-20 -1 -39 10 -11 27 -19 38 -18 40 3 57 -1 51 -11 -5 -8 -11 -8 -19 -1 -9 8
-16 4 -26 -15 -12 -21 -12 -27 0 -34 15 -9 18 -68 4 -78 -15 -11 -48 -65 -59
-97 -5 -16 -20 -34 -32 -40 -13 -5 -23 -18 -23 -27 0 -10 -7 -18 -15 -18 -8 0
-15 9 -15 20 0 21 -27 28 -45 11 -6 -4 -32 -14 -60 -21 -27 -7 -61 -21 -75
-29 -14 -9 -37 -23 -52 -31 -16 -7 -28 -17 -28 -22 0 -4 -7 -8 -15 -8 -8 0
-15 -4 -15 -10 0 -15 -72 -42 -102 -37 -20 2 -28 -2 -32 -17 -3 -11 0 -26 6
-33 8 -10 4 -13 -20 -13 -35 0 -54 24 -45 58 4 16 1 22 -11 22 -12 0 -15 -6
-10 -25 7 -27 -12 -36 -22 -10 -3 8 -15 17 -25 20 -11 4 -19 14 -18 23 3 37 0
47 -13 34 -19 -19 -29 -14 -22 12 5 19 -1 31 -28 55 -25 23 -34 26 -38 15 -5
-12 -8 -12 -23 -2 -15 12 -16 17 -2 62 8 27 12 59 9 72 -5 18 -2 24 11 24 12
0 15 -5 10 -19 -7 -24 4 -71 17 -71 16 0 -1 100 -23 136 -27 44 -24 57 21 84
56 35 57 52 2 25 -27 -13 -55 -36 -65 -54 -10 -17 -22 -31 -28 -31 -5 0 -4 9
3 20 11 17 10 22 -1 30 -12 7 -12 11 -3 23 7 8 12 19 11 23 -6 33 3 52 26 58
14 4 23 11 19 17 -3 6 4 13 15 16 16 4 19 9 11 18 -15 18 65 58 104 50 16 -3
44 -5 62 -5z m-304 -42 c-6 -7 -25 -21 -44 -31 l-33 -19 33 31 c32 31 66 45
44 19z m-575 -67 c-8 -16 -13 -53 -11 -90 1 -35 -2 -75 -6 -90 l-7 -26 -12 28
c-22 56 -24 106 -6 165 10 31 23 63 28 70 18 23 30 -25 14 -57z m681 47 c-7
-19 -100 -63 -125 -59 -6 1 -14 -3 -18 -9 -3 -5 -11 -10 -17 -10 -18 0 35 45
72 62 69 31 94 35 88 16z m-778 -87 c0 -67 21 -175 42 -215 8 -14 7 -17 -3
-14 -33 11 -81 298 -50 298 7 0 11 -24 11 -69z m210 54 c0 -8 -13 -21 -30 -30
-59 -31 -70 -11 -12 23 45 26 42 25 42 7z m375 3 c4 -3 1 -17 -6 -30 -7 -12
-12 -29 -11 -35 2 -7 -6 -13 -18 -13 -15 0 -22 -8 -26 -30 -4 -16 -11 -30 -16
-30 -6 0 -7 13 -2 33 4 17 8 50 10 72 1 22 2 41 3 41 3 5 61 -2 66 -8z m2689
-34 c11 -28 6 -40 -14 -40 -11 0 -20 6 -20 12 0 19 11 44 20 44 4 0 11 -7 14
-16z m-2674 -18 c0 -3 -4 -8 -10 -11 -5 -3 -10 -1 -10 4 0 6 5 11 10 11 6 0
10 -2 10 -4z m61 -73 c-12 -20 -14 -14 -5 12 4 9 9 14 11 11 3 -2 0 -13 -6
-23z m2647 5 c7 -9 6 -16 -2 -24 -10 -9 -15 -7 -24 6 -17 27 6 42 26 18z
m-2738 -8 c0 -5 -4 -10 -10 -10 -5 0 -10 5 -10 10 0 6 5 10 10 10 6 0 10 -4
10 -10z m2490 -12 c0 -4 -4 -8 -10 -8 -5 0 -10 -7 -10 -16 0 -9 -5 -14 -11
-12 -6 2 -10 7 -10 11 1 4 1 13 1 21 0 9 9 14 20 13 11 -1 20 -5 20 -9z
m-2795 -6 c6 -4 19 -20 29 -36 17 -27 17 -66 -1 -112 -11 -29 13 -13 26 19 28
61 56 74 63 30 3 -16 9 -36 13 -45 5 -13 2 -18 -11 -19 -16 -1 -16 -2 -3 -6
18 -4 15 -36 -4 -61 -5 -7 -7 -15 -4 -18 3 -4 0 -13 -8 -20 -7 -8 -13 -32 -13
-55 0 -22 -2 -43 -6 -46 -3 -4 -6 11 -6 33 0 21 -4 35 -8 29 -4 -5 -16 -15
-28 -22 -20 -11 -21 -10 -14 29 7 35 5 41 -11 45 -18 5 -21 9 -23 36 -2 30
-106 87 -106 57 0 -14 -27 -12 -32 3 -3 6 -4 21 -2 32 2 11 6 31 8 45 2 14 5
30 5 37 1 13 53 40 91 46 14 2 27 5 30 5 3 1 10 -2 15 -6z m2802 -34 c-3 -8
-6 -5 -6 6 -1 11 2 17 5 13 3 -3 4 -12 1 -19z m-2287 -28 c0 -5 -4 -10 -10
-10 -5 0 -10 5 -10 10 0 6 5 10 10 10 6 0 10 -4 10 -10z m-106 -25 c-4 -8 -10
-15 -15 -15 -4 0 -6 7 -3 15 4 8 10 15 15 15 4 0 6 -7 3 -15z m2523 -57 c-3
-7 -5 -2 -5 12 0 14 2 19 5 13 2 -7 2 -19 0 -25z m77 0 c0 -13 -4 -43 -8 -66
-6 -33 -11 -41 -19 -33 -9 9 -8 17 2 33 10 16 10 23 2 26 -15 5 -14 49 2 55
21 9 23 8 21 -15z m66 -33 c0 -18 -5 -25 -19 -25 -17 0 -18 3 -8 25 15 32 27
32 27 0z m-1730 6 c0 -6 -4 -13 -10 -16 -5 -3 -10 1 -10 9 0 9 5 16 10 16 6 0
10 -4 10 -9z m55 -11 c-4 -11 -2 -20 4 -20 12 0 15 -43 4 -54 -4 -4 -8 -14 -8
-23 0 -25 -30 -39 -49 -24 -16 14 -23 57 -7 47 4 -3 6 6 3 19 -2 14 0 25 5 25
6 0 9 11 8 25 -3 21 1 25 22 25 20 0 23 -4 18 -20z m-143 -99 c26 -29 24 -55
-4 -46 -48 15 -105 11 -78 -5 17 -11 -78 -100 -107 -100 -14 0 -23 -6 -23 -16
0 -13 -4 -13 -32 4 -18 11 -39 17 -45 15 -7 -3 -13 0 -13 6 0 6 11 13 25 17
27 7 33 20 13 26 -12 4 72 68 90 68 5 0 17 9 27 20 10 11 24 20 32 20 7 0 13
4 13 9 0 16 83 2 102 -18z m-962 9 c0 -5 -7 -10 -16 -10 -8 0 -12 5 -9 10 3 6
10 10 16 10 5 0 9 -4 9 -10z m1890 -30 c13 -12 29 -18 36 -16 8 3 11 -1 8 -8
-3 -8 -1 -17 5 -21 6 -3 11 -14 10 -23 0 -14 -2 -13 -10 3 -6 11 -23 29 -39
40 -17 11 -32 26 -35 33 -6 17 -2 15 25 -8z m154 -15 c-8 -20 -33 -27 -52 -15
-14 9 -13 10 6 5 19 -5 22 -2 22 21 0 22 2 24 14 14 8 -6 12 -18 10 -25z
m-2360 -30 c-17 -26 -17 -28 1 -41 17 -12 17 -14 1 -20 -19 -7 -42 17 -52 55
-9 32 33 68 54 47 12 -12 11 -18 -4 -41z m326 35 c0 -5 -4 -10 -10 -10 -5 0
-10 5 -10 10 0 6 5 10 10 10 6 0 10 -4 10 -10z m2307 -14 c12 -1 21 -3 21 -6
-2 -24 4 -40 15 -40 17 0 43 -43 28 -48 -6 -2 -11 -12 -11 -23 0 -23 -15 -25
-24 -3 -11 28 -7 44 9 38 29 -11 15 16 -17 32 -21 11 -33 13 -36 6 -2 -8 -9
-8 -23 1 -24 15 -25 31 -1 23 16 -6 16 -5 0 8 -10 7 -18 17 -18 21 0 4 8 4 18
-1 9 -4 27 -8 39 -8z m433 -7 c0 -6 -4 -7 -10 -4 -5 3 -10 11 -10 16 0 6 5 7
10 4 6 -3 10 -11 10 -16z m-2760 -9 c0 -5 -4 -10 -10 -10 -5 0 -10 5 -10 10 0
6 5 10 10 10 6 0 10 -4 10 -10z m2104 -6 c24 -23 19 -26 -14 -9 -16 9 -30 18
-30 20 0 11 30 4 44 -11z m632 -11 c-7 -7 -26 7 -26 19 0 6 6 6 15 -2 9 -7 13
-15 11 -17z m22 -43 c-1 -16 -5 -30 -10 -30 -9 0 -10 7 -2 38 9 30 13 28 12
-8z m-568 10 c0 -5 -4 -10 -10 -10 -5 0 -10 5 -10 10 0 6 5 10 10 10 6 0 10
-4 10 -10z m-157 -16 c3 -3 3 -13 0 -21 -5 -12 -7 -12 -14 -1 -15 23 -4 40 14
22z m-1603 -14 c0 -5 -8 -10 -17 -10 -15 0 -16 2 -3 10 19 12 20 12 20 0z
m1500 0 c0 -5 -2 -10 -4 -10 -3 0 -8 5 -11 10 -3 6 -1 10 4 10 6 0 11 -4 11
-10z m280 0 c12 -8 11 -10 -7 -10 -13 0 -23 5 -23 10 0 13 11 13 30 0z m-210
-31 c0 -6 -4 -7 -10 -4 -5 3 -10 11 -10 16 0 6 5 7 10 4 6 -3 10 -11 10 -16z
m100 11 c0 -5 -2 -10 -4 -10 -3 0 -8 5 -11 10 -3 6 -1 10 4 10 6 0 11 -4 11
-10z m-1662 -10 c15 -1 15 -2 1 -10 -19 -11 -61 -2 -53 12 3 5 13 7 21 4 8 -3
22 -6 31 -6z m1762 0 c0 -5 -7 -10 -16 -10 -8 0 -12 5 -9 10 3 6 10 10 16 10
5 0 9 -4 9 -10z m-1380 -31 c0 -6 -4 -7 -10 -4 -5 3 -10 11 -10 16 0 6 5 7 10
4 6 -3 10 -11 10 -16z m-995 -48 c1 -55 -1 -58 -23 -58 -16 0 -27 8 -33 25
-10 25 1 46 41 79 8 7 15 13 15 13 0 0 0 -26 0 -59z m2575 55 c0 -3 -4 -8 -10
-11 -5 -3 -10 -1 -10 4 0 6 5 11 10 11 6 0 10 -2 10 -4z m-1973 -31 c-4 -8
-14 -15 -23 -15 -16 0 -16 2 1 20 20 22 31 20 22 -5z m1908 -25 c-9 -15 -25
-2 -25 21 0 19 1 19 16 5 8 -9 12 -20 9 -26z m-1608 2 c-15 -2 -27 -8 -27 -13
0 -6 -8 -5 -20 1 -27 14 -15 32 16 24 16 -4 24 -2 24 6 0 9 4 9 17 -1 15 -13
14 -14 -10 -17z m917 6 c-3 -5 0 -15 6 -23 7 -8 8 -15 3 -15 -5 0 -15 11 -20
23 -9 19 -8 24 3 24 7 0 11 -4 8 -9z m531 2 c3 -5 1 -10 -4 -10 -6 0 -11 5
-11 10 0 6 2 10 4 10 3 0 8 -4 11 -10z m-712 -24 c3 -8 0 -19 -6 -24 -9 -8
-12 -4 -12 14 0 27 10 32 18 10z m134 -8 c-3 -8 -6 -5 -6 6 -1 11 2 17 5 13 3
-3 4 -12 1 -19z m-1161 0 c7 -11 10 -45 13 -135 1 -30 5 -43 15 -43 9 0 12 -7
9 -20 -4 -13 0 -20 10 -20 22 0 47 -44 40 -71 -6 -21 -4 -22 9 -11 12 10 18
10 23 1 6 -8 10 -7 16 2 7 11 9 10 9 -3 0 -11 8 -18 19 -18 27 0 35 -17 12
-25 -23 -7 -32 -26 -24 -54 8 -31 43 -25 56 9 4 10 6 8 6 -7 1 -27 12 -35 31
-22 12 8 12 12 3 16 -7 2 -13 11 -13 19 0 8 -4 14 -9 14 -22 0 -41 -13 -41
-28 0 -10 -3 -13 -10 -6 -11 11 -2 56 10 49 4 -3 13 2 20 10 7 8 19 15 27 15
10 0 14 7 10 20 -6 23 -3 24 24 10 24 -13 25 -40 2 -40 -10 0 -14 -4 -8 -8 6
-4 10 -14 10 -22 0 -8 9 -15 20 -15 14 0 19 6 17 19 -2 13 0 16 10 10 7 -5 21
-8 32 -9 10 0 24 -9 30 -20 14 -25 48 -54 63 -55 7 0 16 -6 20 -12 4 -7 16
-18 27 -23 10 -6 18 -15 17 -20 -1 -6 8 -13 21 -17 l23 -6 -22 -1 c-31 -1 -29
-21 1 -21 13 0 26 -7 30 -15 3 -8 12 -15 21 -15 11 0 15 -9 14 -32 -1 -18 -3
-26 -6 -17 -2 10 -16 16 -41 17 -41 2 -78 37 -61 58 20 24 -19 22 -42 -2 -26
-28 -35 -30 -42 -10 -4 10 -1 13 7 10 8 -3 17 -1 21 5 3 6 -1 11 -11 11 -13 0
-14 3 -5 14 9 11 7 15 -8 19 -10 2 -25 1 -32 -4 -11 -7 -10 -9 5 -9 13 0 16
-5 12 -16 -10 -25 34 -84 62 -84 24 0 28 -10 10 -28 -9 -9 -7 -13 5 -18 9 -3
17 -12 17 -20 0 -8 -6 -11 -15 -8 -8 4 -15 2 -15 -4 0 -15 22 -21 41 -11 12 6
20 2 29 -16 7 -13 17 -22 22 -19 4 3 8 -9 8 -26 0 -17 4 -29 9 -26 12 8 20 56
10 56 -5 0 -6 7 -3 15 4 8 2 15 -4 15 -13 0 -21 35 -11 51 6 10 9 9 15 -6 17
-52 30 -75 41 -75 6 0 28 -15 49 -34 23 -21 43 -32 55 -29 11 3 19 0 19 -7 0
-6 7 -18 15 -26 8 -9 15 -24 15 -35 0 -10 5 -19 10 -19 6 0 10 4 10 10 0 11
32 1 42 -14 4 -6 10 -7 14 -3 4 4 -1 14 -12 21 -25 19 -25 38 1 53 20 12 20
12 -1 13 -12 0 -27 -7 -34 -15 -17 -21 -33 -14 -40 16 -4 17 -14 25 -33 27
-15 2 -25 7 -22 12 3 5 13 6 23 3 16 -5 16 -5 1 12 -13 13 -21 15 -36 7 -15
-9 -19 -7 -20 9 -1 10 2 19 8 19 5 0 9 10 9 23 0 23 14 38 61 69 20 12 29 14
38 5 8 -8 11 -4 11 17 0 26 -2 28 -27 21 -16 -3 -46 -8 -68 -10 -22 -2 -30 -1
-17 1 12 3 22 10 22 15 0 6 -9 8 -19 4 -11 -3 -22 -1 -26 5 -4 6 8 10 33 10
31 0 46 7 75 35 33 32 41 35 96 35 33 0 63 -4 66 -10 3 -5 11 -10 16 -10 6 0
8 4 4 9 -3 6 7 6 27 1 30 -9 57 -2 31 7 -16 6 -17 23 -2 23 6 0 22 -9 36 -20
14 -11 30 -17 36 -13 8 5 7 8 -1 11 -19 6 -14 19 9 25 15 4 20 11 16 21 -4 10
-1 16 8 16 15 0 54 -19 65 -30 17 -19 79 -47 82 -38 3 7 10 8 17 4 9 -6 2 -15
-23 -30 -20 -12 -43 -31 -52 -44 -8 -12 -21 -22 -27 -22 -8 0 -7 3 2 9 10 7 7
9 -12 8 -15 -1 -29 -8 -32 -14 -2 -7 -15 -14 -27 -14 -18 -1 -19 -2 -5 -6 10
-3 25 1 33 8 21 17 29 3 16 -27 -11 -23 -14 -24 -27 -10 -12 11 -22 13 -41 6
-17 -7 -23 -7 -19 0 3 6 -1 17 -9 25 -13 14 -16 13 -26 -4 -12 -24 -13 -44 -1
-37 4 3 7 -8 5 -24 -3 -23 0 -28 12 -23 14 5 14 3 3 -16 -15 -23 -29 -28 -29
-8 0 7 -8 3 -16 -8 -11 -14 -18 -16 -21 -7 -6 15 -33 16 -33 1 0 -5 4 -7 10
-4 5 3 15 -3 22 -15 13 -21 38 -27 38 -9 0 5 4 8 9 4 6 -3 15 3 20 14 6 11 18
27 27 36 9 8 17 27 18 40 1 26 16 35 16 10 0 -8 6 -12 14 -9 7 3 20 -2 29 -10
23 -24 44 -20 23 3 -17 19 -17 20 3 30 13 8 18 17 14 29 -5 14 -3 15 8 5 7 -7
23 -13 36 -13 13 0 23 -5 23 -11 0 -7 -12 -10 -28 -7 -35 5 -58 -15 -37 -32
10 -8 19 -8 33 -1 15 8 21 7 25 -3 4 -11 14 -12 41 -6 19 4 37 6 39 3 3 -2 8
2 13 9 4 7 4 10 -1 6 -4 -4 -16 -3 -26 3 -13 7 -19 6 -19 -1 0 -7 -6 -5 -15 4
-8 8 -15 17 -15 20 0 3 7 3 15 0 8 -4 15 -2 15 4 0 6 -6 13 -12 15 -8 3 -6 6
5 6 10 1 20 -5 23 -13 3 -8 16 -17 30 -20 22 -6 29 -21 24 -55 -1 -9 5 -12 19
-8 12 3 22 -1 26 -11 3 -8 8 -12 12 -9 3 4 12 -1 19 -11 12 -15 15 -15 23 -2
7 9 7 18 1 24 -6 6 -10 19 -9 30 0 20 1 20 11 -1 6 -13 17 -23 23 -23 7 0 24
-9 39 -21 14 -11 26 -15 26 -9 0 6 -7 13 -15 16 -8 4 -15 12 -15 20 0 8 7 14
15 14 19 0 20 26 1 33 -9 4 -16 -1 -19 -11 -3 -12 -6 -7 -12 13 -4 17 -15 38
-23 48 -14 15 -13 17 3 17 12 0 16 6 12 20 -3 10 0 21 7 23 8 3 8 8 -1 18 -20
20 -15 28 12 23 27 -5 32 5 13 24 -9 9 -7 12 11 12 20 0 21 2 11 15 -10 12 -7
17 16 26 l29 11 -23 9 c-18 7 -22 14 -17 29 5 14 2 20 -9 20 -9 0 -16 -5 -16
-11 0 -5 -5 -7 -10 -4 -6 4 -8 10 -5 15 3 5 0 10 -7 13 -17 6 32 -3 54 -9 13
-4 16 -1 12 9 -3 10 2 18 15 22 12 3 21 13 21 22 0 14 43 63 55 63 2 0 2 -8
-1 -17 -5 -15 -4 -15 4 -4 7 11 6 23 -3 42 -8 14 -11 29 -8 33 4 3 1 6 -5 6
-7 0 -12 4 -12 9 0 5 16 5 37 1 48 -11 66 3 58 42 -4 17 -2 28 4 28 6 0 8 -7
5 -15 -4 -8 -1 -15 6 -15 7 0 9 -8 5 -20 -4 -11 -2 -20 4 -20 6 0 11 9 11 19
0 10 7 21 15 25 8 3 15 16 15 28 0 16 3 19 9 10 7 -11 9 -11 14 2 4 9 13 16
21 16 8 0 17 13 21 30 4 17 11 30 17 30 5 0 8 -6 5 -12 -2 -7 2 -21 11 -30 14
-16 13 -18 -4 -18 -19 -1 -19 -1 0 -15 17 -13 17 -15 4 -15 -26 0 -32 -20 -12
-35 11 -8 15 -15 10 -15 -5 0 -3 -6 3 -14 13 -15 5 -46 -13 -46 -7 0 -11 -18
-10 -50 1 -45 -1 -50 -17 -45 -16 5 -17 1 -13 -36 5 -38 3 -41 -15 -36 -12 3
-21 4 -21 3 0 0 4 -16 9 -34 8 -25 7 -32 -4 -32 -8 0 -17 5 -21 12 -5 7 -10 3
-16 -13 -7 -19 -11 -21 -18 -9 -5 8 -10 11 -10 5 0 -5 5 -17 10 -25 8 -12 13
-13 30 -2 25 15 38 16 23 1 -6 -6 -9 -18 -6 -26 5 -12 1 -14 -15 -8 -17 5 -22
2 -22 -13 0 -13 -11 -21 -37 -28 -22 -6 -37 -16 -39 -26 -3 -22 0 -22 20 -2
14 14 18 14 31 0 18 -17 20 -30 3 -20 -7 5 -8 3 -2 -7 13 -22 14 -43 2 -50 -9
-6 -8 -12 3 -25 8 -10 9 -15 2 -11 -13 8 -33 -21 -33 -48 0 -22 -27 -48 -44
-42 -7 3 -19 0 -25 -6 -16 -16 -26 0 -11 18 7 9 22 13 34 10 12 -3 15 -2 9 1
-7 3 -13 12 -13 20 0 22 -15 16 -40 -16 -13 -16 -28 -30 -35 -30 -18 0 -57
-58 -42 -63 9 -4 8 -8 -3 -16 -12 -8 -12 -13 -2 -23 9 -9 12 -9 12 0 0 7 5 12
12 12 6 0 3 -8 -7 -20 -10 -11 -21 -17 -26 -15 -4 3 -10 1 -14 -5 -4 -6 5 -10
19 -10 14 0 26 5 26 11 0 5 5 7 11 4 15 -10 -20 -34 -51 -36 -24 -2 -24 -2 -2
-6 23 -5 30 -19 12 -25 -6 -2 -1 -14 12 -27 13 -15 23 -20 26 -13 2 7 17 12
33 12 18 0 28 -4 24 -10 -3 -5 -15 -10 -26 -10 -10 0 -19 -5 -19 -11 0 -7 -10
-9 -25 -5 -29 7 -32 -1 -7 -20 24 -19 39 -17 45 6 3 11 10 20 15 20 14 0 22
-38 8 -44 -7 -3 -6 -8 4 -15 8 -6 12 -11 8 -11 -3 0 -13 -3 -22 -6 -11 -4 -16
-1 -16 10 0 10 -9 16 -25 16 -14 0 -34 9 -45 20 -21 21 -31 25 -29 13 3 -21
-3 -32 -18 -36 -16 -4 -16 -5 -1 -6 9 0 19 3 23 8 9 15 63 -8 70 -30 4 -10 15
-19 26 -19 11 0 22 -7 26 -15 9 -26 -6 -30 -27 -7 -12 12 -28 22 -36 22 -12 0
-10 -5 7 -18 15 -13 19 -21 11 -26 -7 -4 -12 -1 -12 8 0 9 -6 16 -12 16 -7 0
-22 7 -33 16 -17 13 -18 16 -5 24 13 8 12 10 -2 10 -10 0 -18 -7 -18 -15 0 -8
-5 -15 -11 -15 -6 0 -9 -7 -5 -15 8 -23 -6 -18 -52 16 -39 28 -55 59 -32 59 6
0 10 7 10 16 0 12 5 14 18 9 36 -16 65 -18 57 -6 -4 7 -13 10 -20 7 -8 -3 -19
2 -25 10 -10 11 -9 14 4 14 13 0 17 7 14 33 -4 37 -22 39 -26 2 -2 -14 -10
-25 -18 -25 -8 0 -14 -4 -14 -10 0 -5 -4 -10 -10 -10 -5 0 -7 13 -3 30 4 20 2
30 -7 30 -7 0 -10 7 -6 15 3 8 2 15 -3 15 -5 0 -11 -9 -14 -20 -4 -14 -10 -18
-23 -13 -12 4 -15 3 -10 -6 5 -7 16 -11 26 -8 20 5 34 -15 20 -29 -4 -5 -11
-19 -15 -31 -5 -18 -2 -23 11 -23 16 0 16 -1 -2 -15 -16 -13 -17 -16 -4 -25 8
-5 22 -10 30 -10 8 0 21 -9 28 -20 7 -12 16 -18 21 -15 13 8 29 -16 34 -54 4
-26 3 -31 -6 -22 -7 7 -13 16 -13 22 -1 5 -2 14 -3 19 -2 14 -28 12 -34 -2 -4
-9 -6 -8 -6 2 -1 22 -41 20 -41 -1 0 -10 -13 -23 -29 -30 -20 -9 -26 -16 -18
-21 9 -5 9 -10 -1 -20 -9 -9 -12 -9 -12 0 0 7 -5 12 -10 12 -6 0 -6 -7 1 -19
7 -11 19 -16 31 -13 20 5 26 -14 6 -20 -10 -4 -10 -10 0 -33 17 -37 10 -41
-22 -14 -17 14 -26 33 -26 51 0 15 -4 28 -10 28 -5 0 -10 -7 -10 -15 0 -8 -5
-15 -12 -15 -6 0 -20 -7 -30 -17 -10 -9 -18 -12 -18 -7 0 5 -11 11 -25 12 -19
1 -29 -5 -37 -23 -12 -27 -24 -30 -48 -15 -11 7 -12 10 -2 10 10 0 10 4 -2 16
-9 8 -21 12 -27 8 -8 -4 -9 -3 -5 4 5 8 0 11 -11 10 -55 -4 -74 2 -73 25 3 36
1 41 -20 55 -17 11 -20 10 -20 -8 0 -14 5 -18 18 -13 13 4 14 3 6 -6 -8 -9 -5
-24 13 -58 13 -26 29 -51 36 -55 8 -6 5 -8 -8 -6 -11 2 -27 18 -37 38 -10 19
-17 29 -18 23 0 -7 -9 -13 -21 -13 -11 0 -18 4 -14 9 3 5 1 12 -5 16 -5 3 -10
1 -10 -4 0 -6 -9 -11 -21 -11 -15 0 -19 4 -14 19 5 16 2 18 -15 14 -11 -3 -20
0 -20 6 0 6 -4 11 -10 11 -5 0 -10 -16 -10 -36 0 -29 -3 -34 -13 -25 -11 8
-17 5 -27 -14 -10 -18 -19 -24 -32 -19 -12 4 -24 -1 -32 -12 -12 -16 -13 -15
-18 4 -5 18 -1 22 27 28 19 3 36 12 39 20 3 8 14 14 25 14 15 0 11 8 -21 40
-55 55 -82 54 -71 -3 3 -15 12 -27 19 -27 21 0 17 -17 -6 -23 -11 -3 -18 -1
-14 4 8 13 -10 11 -25 -3 -9 -9 -8 -2 3 19 9 18 12 34 7 38 -5 3 -12 1 -16 -4
-3 -6 -13 -7 -22 -4 -11 4 -14 3 -9 -5 11 -18 -6 -14 -34 8 -18 13 -28 16 -37
8 -7 -6 -13 -7 -13 -2 0 11 16 36 21 34 9 -3 39 13 39 22 0 5 -6 6 -12 1 -7
-4 -23 -6 -35 -4 -13 1 -23 -1 -23 -6 0 -5 -9 -9 -20 -9 -22 0 -25 7 -11 21
18 19 49 83 44 89 -4 3 -18 6 -32 5 l-26 -1 25 -8 c15 -5 18 -8 8 -9 -9 -1
-24 -4 -32 -7 -14 -5 -15 -2 -6 21 6 15 8 30 5 34 -9 8 -25 -21 -25 -46 0 -16
-5 -20 -21 -16 -14 4 -17 9 -10 16 16 16 13 24 -9 30 -14 3 -20 0 -20 -10 0
-13 -3 -13 -15 -3 -19 16 -19 25 1 56 l17 25 18 -28 c11 -15 19 -23 19 -17 0
7 9 14 21 17 12 3 18 10 14 16 -9 15 -35 14 -35 -1 0 -6 -6 -4 -13 7 -10 13
-21 16 -41 11 -25 -6 -27 -5 -21 16 6 19 5 21 -6 10 -7 -6 -13 -28 -13 -47 0
-24 -4 -34 -12 -31 -7 3 -18 -2 -24 -10 -22 -25 -32 -15 -11 12 25 32 17 56
-18 52 -15 -2 -26 2 -27 10 -3 23 -4 24 -17 13 -21 -17 -28 -2 -11 24 14 21
13 23 -11 29 -26 7 -35 26 -12 26 6 0 4 5 -6 11 -13 8 -22 7 -33 -1 -11 -10
-14 -9 -14 4 0 9 5 16 10 16 14 0 9 31 -8 49 -10 10 -10 16 -1 27 9 11 9 14
-1 14 -7 0 -10 6 -7 14 3 8 -1 17 -10 20 -9 4 -13 9 -10 13 4 3 1 13 -5 21
-10 11 -8 18 10 32 12 10 22 24 22 31 0 7 -6 5 -15 -7 -13 -17 -14 -17 -15 -1
0 9 -7 17 -15 17 -18 0 -19 5 -4 32 6 11 7 18 2 15 -14 -9 -46 21 -39 38 4 12
0 15 -17 13 -12 -2 -23 2 -24 7 -2 6 4 10 12 10 8 0 15 4 15 8 0 43 -1 47 -22
48 -13 0 -17 3 -10 6 6 2 12 18 12 35 0 25 -3 28 -21 23 -19 -6 -20 -3 -17 27
2 26 -2 35 -18 42 -21 9 -27 48 -11 73 11 17 -4 75 -18 70 -6 -3 -12 1 -12 9
0 8 9 14 19 14 10 0 18 5 18 11 0 6 -9 9 -20 6 -16 -4 -20 0 -20 18 0 13 -3
32 -7 42 -6 16 -8 15 -14 -7 -5 -18 -7 -12 -6 22 1 25 5 44 9 42 4 -3 8 0 8 5
0 6 -4 11 -10 11 -5 0 -10 4 -10 10 0 5 6 7 14 4 8 -3 17 -1 21 5 8 15 52 14
61 -1z m114 2 c0 -5 -2 -10 -4 -10 -3 0 -8 5 -11 10 -3 6 -1 10 4 10 6 0 11
-4 11 -10z m690 -11 c0 -6 -4 -7 -10 -4 -5 3 -10 11 -10 16 0 6 5 7 10 4 6 -3
10 -11 10 -16z m-1350 1 c0 -5 -7 -10 -16 -10 -8 0 -12 5 -9 10 3 6 10 10 16
10 5 0 9 -4 9 -10z m695 0 c3 -5 1 -10 -4 -10 -6 0 -11 5 -11 10 0 6 2 10 4
10 3 0 8 -4 11 -10z m155 0 c0 -5 -2 -10 -4 -10 -3 0 -8 5 -11 10 -3 6 -1 10
4 10 6 0 11 -4 11 -10z m540 -5 c-7 -8 -14 -15 -15 -15 -2 0 -5 7 -9 15 -4 10
1 15 16 15 17 0 18 -2 8 -15z m1074 0 c3 -8 1 -15 -4 -15 -6 0 -10 7 -10 15 0
8 2 15 4 15 2 0 6 -7 10 -15z m-765 -8 c12 4 13 3 2 -5 -17 -12 0 -24 18 -12
8 4 10 13 7 19 -4 6 -2 11 3 11 6 0 11 -4 11 -9 0 -47 -50 -57 -69 -13 -9 20
-10 24 -1 15 7 -6 20 -9 29 -6z m661 -7 c0 -5 -4 -10 -10 -10 -5 0 -10 5 -10
10 0 6 5 10 10 10 6 0 10 -4 10 -10z m-753 -6 c-3 -3 -12 -4 -19 -1 -8 3 -5 6
6 6 11 1 17 -2 13 -5z m-207 -20 c0 -8 -4 -12 -10 -9 -5 3 -10 10 -10 16 0 5
5 9 10 9 6 0 10 -7 10 -16z m190 -54 c0 -12 2 -13 9 -1 5 7 13 11 19 7 6 -3
14 -2 17 4 13 21 35 -11 34 -49 0 -30 -2 -33 -9 -15 -7 17 -21 24 -59 29 -28
4 -52 10 -52 13 -5 26 -6 58 -1 66 6 11 41 -34 42 -54z m-1370 36 c0 -3 -4 -8
-10 -11 -5 -3 -10 -1 -10 4 0 6 5 11 10 11 6 0 10 -2 10 -4z m55 -23 c10 4 10
0 1 -19 -7 -14 -19 -23 -31 -23 -17 1 -17 2 -2 6 9 2 17 11 17 18 0 9 -7 12
-17 9 -15 -5 -16 -4 -3 5 8 6 11 11 7 11 -5 0 -5 6 0 13 5 9 9 7 11 -6 2 -10
10 -16 17 -14z m1226 10 c10 -11 10 -14 2 -9 -9 5 -13 0 -13 -13 0 -14 5 -19
15 -15 11 5 14 2 9 -12 -12 -34 -23 -41 -63 -41 -31 0 -38 3 -33 15 4 12 1 14
-13 9 -10 -5 -28 -1 -41 8 -29 19 -33 41 -5 25 27 -14 36 -13 22 3 -6 8 -8 17
-5 20 11 10 24 -3 24 -23 0 -19 9 -20 53 -2 17 7 27 19 27 32 0 24 4 25 21 3z
m839 7 c0 -5 -4 -10 -10 -10 -5 0 -10 5 -10 10 0 6 5 10 10 10 6 0 10 -4 10
-10z m183 3 c-7 -2 -19 -2 -25 0 -7 3 -2 5 12 5 14 0 19 -2 13 -5z m-802 -46
c-8 -8 -11 -7 -11 4 0 20 13 34 18 19 3 -7 -1 -17 -7 -23z m53 18 c-4 -8 -11
-12 -16 -9 -6 4 -5 10 3 15 19 12 19 11 13 -6z m-457 -41 c-7 -7 -37 7 -37 17
0 6 9 5 21 -1 11 -7 19 -14 16 -16z m-1002 6 c-3 -5 -10 -10 -16 -10 -5 0 -9
5 -9 10 0 6 7 10 16 10 8 0 12 -4 9 -10z m1265 -4 c0 -3 -4 -8 -10 -11 -5 -3
-10 -1 -10 4 0 6 5 11 10 11 6 0 10 -2 10 -4z m996 -11 c-8 -8 -17 -15 -20
-15 -3 0 -3 7 0 15 4 8 13 15 21 15 12 0 12 -2 -1 -15z m-662 -12 c5 -12 10
-13 18 -5 8 8 15 8 24 1 8 -7 14 -7 19 1 10 16 35 -8 35 -34 0 -47 -12 -68
-36 -63 -16 3 -24 -2 -28 -16 -2 -10 -11 -17 -18 -15 -7 3 -19 -1 -26 -9 -10
-10 -18 -10 -34 -2 -17 9 -23 8 -30 -4 -5 -9 -25 -19 -46 -23 -20 -3 -44 -14
-52 -24 -11 -14 -35 -20 -90 -24 -41 -3 -107 -9 -146 -12 -67 -6 -73 -5 -83
15 -10 17 -16 19 -31 11 -34 -18 -98 -12 -110 10 -10 19 -11 19 -42 0 -35 -21
-68 -13 -68 17 0 13 -5 12 -25 -7 -24 -23 -25 -23 -45 -5 -16 14 -23 16 -32 7
-7 -7 -15 -12 -20 -12 -11 0 -38 56 -38 78 0 23 29 37 44 22 14 -14 26 -12 26
5 0 19 11 19 36 0 26 -19 32 -19 39 5 10 30 58 27 84 -7 12 -14 22 -24 24 -22
1 2 7 13 13 24 15 25 78 24 106 -2 14 -13 21 -14 30 -5 15 15 144 16 153 1 5
-7 13 -5 24 5 24 22 133 44 139 28 2 -7 13 -2 27 13 34 34 64 41 79 19 13 -16
14 -16 26 7 21 40 44 49 54 22z m-337 -19 c-3 -3 -12 -4 -19 -1 -8 3 -5 6 6 6
11 1 17 -2 13 -5z m-1236 -34 c17 0 9 -18 -10 -23 -13 -3 -21 1 -24 15 -4 14
-2 18 10 14 8 -3 19 -6 24 -6z m1792 -36 c-10 -7 -25 -13 -33 -13 -9 0 -6 5 8
11 12 6 22 15 22 20 0 5 5 6 11 3 6 -5 4 -12 -8 -21z m-1793 -14 c0 -5 7 -10
15 -10 8 0 15 -4 15 -10 0 -15 -27 -12 -44 6 -20 19 -20 24 -1 24 8 0 15 -4
15 -10z m408 -27 c-10 -2 -26 -2 -35 0 -10 3 -2 5 17 5 19 0 27 -2 18 -5z
m-228 -83 c0 -5 -4 -10 -10 -10 -5 0 -10 5 -10 10 0 6 5 10 10 10 6 0 10 -4
10 -10z m1890 -16 c0 -2 -7 -4 -15 -4 -8 0 -15 4 -15 10 0 5 7 7 15 4 8 -4 15
-8 15 -10z m-390 -4 c0 -5 -5 -10 -11 -10 -5 0 -7 5 -4 10 3 6 8 10 11 10 2 0
4 -4 4 -10z m470 -10 c0 -5 -5 -10 -11 -10 -5 0 -7 5 -4 10 3 6 8 10 11 10 2
0 4 -4 4 -10z m-428 -17 c-12 -2 -20 -9 -17 -14 4 -5 -4 -9 -16 -9 -18 0 -19
2 -9 15 7 8 24 14 39 14 23 -2 24 -2 3 -6z m-575 -9 c-3 -3 -12 -4 -19 -1 -8
3 -5 6 6 6 11 1 17 -2 13 -5z m81 -5 c-12 -7 -24 -7 -35 0 -15 9 -12 10 17 10
29 0 32 -1 18 -10z m377 -19 c3 -5 -1 -10 -10 -10 -9 0 -13 5 -10 10 3 6 8 10
10 10 2 0 7 -4 10 -10z m-1535 -23 c0 -7 14 -26 31 -43 17 -16 35 -39 40 -51
5 -13 15 -23 24 -23 19 0 20 -16 0 -24 -8 -3 -15 -13 -15 -22 0 -12 6 -15 26
-10 22 6 25 4 19 -13 -3 -11 -1 -22 5 -26 13 -8 13 -45 0 -45 -5 0 -7 7 -4 15
4 8 1 15 -5 15 -10 0 -15 -14 -12 -32 2 -12 -17 -10 -24 2 -4 6 -1 17 5 25 14
17 -1 20 -17 4 -6 -6 -15 -9 -21 -5 -10 6 -9 73 2 83 13 13 6 32 -10 26 -13
-5 -15 -2 -9 15 5 17 2 22 -12 22 -33 1 -54 25 -45 51 5 13 7 30 5 37 -3 6 0
12 6 12 6 0 11 -6 11 -13z m1477 -9 c3 6 9 12 14 12 6 0 7 -4 4 -10 -3 -5 0
-10 7 -10 14 -1 -47 -60 -61 -60 -7 0 -8 27 -2 74 1 5 8 2 18 -5 13 -11 17
-11 20 -1z m-727 -48 c0 -5 -6 -10 -14 -10 -8 0 -18 5 -21 10 -3 6 3 10 14 10
12 0 21 -4 21 -10z m-863 -6 c-3 -3 -12 -4 -19 -1 -8 3 -5 6 6 6 11 1 17 -2
13 -5z m713 -14 c0 -5 -4 -10 -10 -10 -5 0 -10 5 -10 10 0 6 5 10 10 10 6 0
10 -4 10 -10z m1423 -10 c-3 -11 -9 -17 -14 -14 -14 8 -10 34 5 34 9 0 12 -7
9 -20z m-597 -5 c16 -16 7 -19 -20 -9 -9 3 -13 10 -10 15 7 12 13 11 30 -6z
m-546 -30 c0 -2 -9 -9 -19 -14 -14 -8 -22 -7 -31 4 -11 13 -8 15 19 15 17 0
31 -2 31 -5z m-123 -27 c-3 -8 -6 -5 -6 6 -1 11 2 17 5 13 3 -3 4 -12 1 -19z
m1253 18 c0 -2 -7 -9 -15 -16 -12 -10 -15 -10 -15 4 0 9 7 16 15 16 8 0 15 -2
15 -4z m-1353 -37 c0 -23 -3 -26 -14 -17 -7 6 -11 13 -8 16 3 3 1 10 -5 16 -6
8 -3 12 9 13 13 1 18 -6 18 -28z m939 4 c-7 -7 -26 7 -26 19 0 6 6 6 15 -2 9
-7 13 -15 11 -17z m-381 -3 c3 -5 1 -10 -4 -10 -6 0 -11 5 -11 10 0 6 2 10 4
10 3 0 8 -4 11 -10z m-1200 -10 c3 -5 -1 -10 -10 -10 -9 0 -13 5 -10 10 3 6 8
10 10 10 2 0 7 -4 10 -10z m1625 -22 c0 -5 -4 -8 -10 -8 -5 0 -10 10 -10 23 0
18 2 19 10 7 5 -8 10 -18 10 -22z m367 0 c-3 -7 -5 -2 -5 12 0 14 2 19 5 13 2
-7 2 -19 0 -25z m158 23 c3 -5 1 -12 -5 -16 -5 -3 -10 1 -10 9 0 18 6 21 15 7z
m-2138 -27 c-3 -3 -12 -4 -19 -1 -8 3 -5 6 6 6 11 1 17 -2 13 -5z m1953 -24
c0 -5 -2 -10 -4 -10 -3 0 -8 5 -11 10 -3 6 -1 10 4 10 6 0 11 -4 11 -10z
m-1936 -49 c-7 -8 -35 9 -29 19 4 6 11 5 20 -3 7 -6 11 -14 9 -16z m126 4 c11
-13 10 -14 -4 -9 -12 5 -16 0 -16 -16 0 -19 -4 -21 -27 -15 -16 4 -36 15 -46
26 -18 19 -18 20 7 13 13 -3 33 -1 43 5 24 14 28 14 43 -4z m1672 -45 c-2 -7
5 -9 20 -6 l23 6 -22 -11 c-18 -9 -21 -17 -16 -37 4 -18 2 -23 -6 -18 -6 4 -9
12 -6 17 4 5 -1 9 -9 9 -22 0 -20 -9 6 -37 12 -13 19 -23 15 -23 -9 0 -57 53
-57 63 0 4 5 5 10 2 14 -9 12 18 -2 34 -11 11 -10 13 5 8 9 -4 17 -2 17 4 0 6
6 9 13 6 6 -2 11 -10 9 -17z m-1765 4 c-3 -3 -12 -4 -19 -1 -8 3 -5 6 6 6 11
1 17 -2 13 -5z m107 -26 c-3 -4 1 -8 8 -8 23 0 40 -38 28 -60 -9 -16 -8 -20 5
-20 21 0 37 -41 22 -56 -16 -15 -77 -26 -77 -14 0 6 -7 10 -15 10 -25 0 -17
17 11 24 25 7 25 8 8 20 -10 8 -25 12 -34 9 -10 -3 -8 1 5 12 20 17 20 17 -3
10 -21 -6 -23 -4 -17 14 4 14 2 21 -7 21 -7 0 -2 7 10 16 12 8 20 20 17 25 -4
5 5 8 19 7 13 -1 22 -6 20 -10z m1791 -19 c-8 -13 -32 -11 -41 3 -5 8 -2 9 9
5 10 -3 17 -2 17 4 0 6 5 7 10 4 6 -4 8 -11 5 -16z m140 -9 c3 -5 1 -10 -4
-10 -6 0 -11 5 -11 10 0 6 2 10 4 10 3 0 8 -4 11 -10z m-313 -52 c-7 -7 -12
-8 -12 -2 0 6 3 14 7 17 3 4 9 5 12 2 2 -3 -1 -11 -7 -17z m168 12 c0 -5 -10
-10 -22 -9 -22 0 -22 1 -3 9 11 5 21 9 23 9 1 1 2 -3 2 -9z m-214 -26 c-3 -8
-2 -23 3 -32 7 -14 4 -17 -22 -19 -28 -2 -29 -2 -11 12 16 13 16 14 2 9 -10
-3 -18 -1 -18 5 0 6 7 11 15 11 9 0 18 7 21 15 4 8 8 15 11 15 3 0 2 -7 -1
-16z m79 -4 c3 -5 -1 -10 -9 -10 -9 0 -16 5 -16 10 0 6 4 10 9 10 6 0 13 -4
16 -10z m252 -22 c-3 -8 -6 -5 -6 6 -1 11 2 17 5 13 3 -3 4 -12 1 -19z m-287
-22 c0 -3 -4 -8 -10 -11 -5 -3 -10 -1 -10 4 0 6 5 11 10 11 6 0 10 -2 10 -4z
m-1896 -35 c3 -5 -1 -11 -9 -15 -15 -6 -29 7 -18 18 9 9 21 8 27 -3z m311 -31
c0 -7 -6 -15 -12 -17 -7 -3 -13 0 -13 7 0 6 5 8 10 5 6 -3 10 -2 10 4 0 5 -5
12 -10 14 -6 3 -5 4 2 3 7 -2 13 -9 13 -16z m160 10 c3 -5 1 -10 -4 -10 -6 0
-11 5 -11 10 0 6 2 10 4 10 3 0 8 -4 11 -10z m-408 -6 c-3 -3 -12 -4 -19 -1
-8 3 -5 6 6 6 11 1 17 -2 13 -5z m333 -4 c0 -5 8 -10 18 -10 14 0 14 -2 3 -9
-9 -6 -24 -5 -40 2 -43 18 -47 27 -13 27 18 0 32 -4 32 -10z m-353 -38 c-23
-25 -21 -32 8 -32 14 0 25 -4 25 -10 0 -12 -7 -12 -48 -4 -28 6 -30 8 -20 28
12 22 27 36 42 36 5 0 2 -8 -7 -18z m442 9 c9 -6 10 -11 2 -15 -6 -4 -11 -3
-11 3 0 5 -8 12 -17 14 -13 3 -14 5 -3 6 8 0 21 -3 29 -8z m-409 -21 c0 -5 -2
-10 -4 -10 -3 0 -8 5 -11 10 -3 6 -1 10 4 10 6 0 11 -4 11 -10z m35 -30 c3 -5
1 -10 -4 -10 -6 0 -11 5 -11 10 0 6 2 10 4 10 3 0 8 -4 11 -10z m453 -7 c29
-28 4 -31 -29 -4 -22 18 -22 19 -4 18 11 -1 26 -7 33 -14z m59 1 c-3 -3 -12
-4 -19 -1 -8 3 -5 6 6 6 11 1 17 -2 13 -5z m-257 -8 c0 -3 -4 -8 -10 -11 -5
-3 -10 -1 -10 4 0 6 5 11 10 11 6 0 10 -2 10 -4z m-297 -58 c-8 -14 18 -28 42
-23 11 3 14 2 8 -1 -7 -3 -13 -13 -13 -21 0 -14 -2 -14 -18 0 -10 10 -26 17
-35 17 -19 0 -23 15 -7 25 12 7 14 26 3 24 -17 -3 -24 2 -18 12 5 7 13 4 26
-7 10 -9 16 -21 12 -26z m509 10 c-7 -7 -12 -8 -12 -2 0 6 3 14 7 17 3 4 9 5
12 2 2 -3 -1 -11 -7 -17z m1198 7 c-7 -9 -15 -13 -17 -11 -7 7 7 26 19 26 6 0
6 -6 -2 -15z m13 -21 c23 4 38 3 43 -5 5 -9 2 -10 -9 -6 -11 4 -17 1 -17 -8 0
-19 -34 -19 -54 0 -8 8 -19 15 -25 15 -12 0 -15 13 -4 23 3 4 11 -1 18 -10 9
-12 21 -14 48 -9z m-1123 -13 c0 -10 -56 -41 -73 -41 -6 0 -2 9 8 20 10 11 21
18 24 15 4 -2 13 0 21 6 19 11 20 11 20 0z m-100 -5 c0 -3 -4 -8 -10 -11 -5
-3 -10 -1 -10 4 0 6 5 11 10 11 6 0 10 -2 10 -4z m-582 -31 c14 -31 6 -32 -19
-3 -23 25 -23 28 -6 28 8 0 19 -11 25 -25z m182 -14 c0 -6 6 -11 14 -11 8 0
16 -7 20 -15 3 -8 12 -15 21 -15 8 0 15 -6 15 -13 0 -8 23 -38 52 -67 29 -30
46 -50 38 -45 -10 5 -8 1 3 -12 14 -16 15 -22 5 -27 -7 -3 -4 -4 7 -1 13 3 34
-9 63 -35 24 -22 49 -37 54 -33 6 3 8 1 4 -5 -6 -10 5 -21 70 -67 86 -62 110
-99 71 -111 -20 -6 -19 -7 6 -21 35 -18 34 -27 0 -19 l-28 6 24 -20 c32 -28
46 -25 48 10 1 19 -3 30 -11 30 -14 0 -15 27 -2 48 4 6 4 17 0 24 -4 7 -3 8 5
4 6 -4 9 -16 6 -27 -9 -26 23 -38 40 -15 16 22 35 13 63 -29 26 -41 27 -45 8
-45 -24 0 -28 -17 -6 -23 11 -3 18 -2 16 1 -2 4 2 13 10 20 8 7 14 8 14 3 0
-10 20 -18 60 -26 12 -2 29 -10 37 -16 8 -7 33 -15 56 -19 23 -4 51 -11 62
-15 14 -5 16 -4 6 3 -9 7 -10 12 -2 16 6 4 24 -6 40 -22 16 -15 37 -27 48 -26
10 2 30 -10 45 -27 15 -16 31 -29 36 -29 5 0 38 -15 73 -32 57 -29 74 -33 154
-34 93 -1 130 8 122 31 -4 9 1 11 15 7 14 -3 19 -1 14 6 -4 7 -13 12 -20 12
-6 0 -17 5 -23 11 -9 9 -3 16 25 30 44 23 48 23 32 4 -7 -8 -19 -15 -26 -15
-8 0 -14 -5 -14 -11 0 -7 9 -9 23 -5 21 5 24 2 22 -25 -1 -18 2 -28 9 -25 48
21 66 33 66 49 0 9 -7 17 -17 17 -18 0 -8 15 10 15 7 1 11 6 10 13 -2 7 2 12
7 12 6 0 10 -4 10 -10 0 -5 7 -10 15 -10 8 0 15 4 15 9 0 4 17 7 39 6 32 -2
38 1 34 15 -3 10 1 21 7 25 9 5 10 1 5 -15 -6 -18 -4 -22 8 -17 11 4 13 0 9
-15 -3 -14 -1 -19 6 -14 7 4 12 2 12 -3 0 -7 7 -7 20 1 11 7 20 18 20 25 0 7
5 13 10 13 14 0 12 -27 -2 -33 -10 -4 -9 -8 2 -16 13 -10 11 -15 -12 -36 -16
-13 -28 -26 -28 -28 0 -2 14 -4 30 -4 18 0 29 5 27 11 -3 6 6 12 20 12 20 2
22 0 8 -10 -8 -6 -16 -29 -18 -51 -3 -45 -13 -67 -30 -63 -7 1 -28 -8 -47 -21
-23 -15 -27 -20 -12 -16 12 3 22 3 22 0 0 -9 -40 -60 -48 -61 -4 0 -20 -6 -36
-13 -16 -6 -50 -14 -75 -17 -25 -3 -59 -7 -76 -10 -165 -21 -405 -12 -568 22
-37 8 -82 16 -100 18 -92 13 -328 72 -382 95 -11 4 -49 21 -85 36 -132 55
-147 65 -154 96 -6 32 -20 38 -30 13 -4 -11 -2 -15 7 -11 8 3 14 -1 14 -8 0
-10 -6 -11 -24 -2 -12 5 -23 18 -23 29 0 10 -5 18 -11 18 -6 0 -9 6 -6 14 8
20 -4 28 -20 14 -15 -12 -28 -5 -18 11 3 6 18 11 33 11 25 1 25 2 8 12 -14 8
-24 8 -38 -1 -14 -9 -24 -9 -41 0 -13 8 -17 14 -9 17 6 2 12 11 12 19 0 10 -6
13 -16 9 -10 -4 -13 -2 -8 6 4 7 9 22 10 34 2 17 -2 21 -17 17 -21 -6 -25 7
-8 24 8 8 5 13 -10 18 -27 8 -27 25 -1 25 12 0 25 -10 32 -25 6 -14 16 -25 23
-25 6 0 22 -11 35 -25 12 -13 27 -22 33 -18 6 3 7 2 4 -3 -3 -6 -2 -16 3 -24
8 -13 12 -11 25 8 19 26 31 28 39 6 5 -12 1 -14 -15 -9 -16 5 -19 4 -14 -5 4
-7 1 -16 -6 -22 -10 -6 -6 -7 11 -2 14 4 35 7 48 6 30 -2 28 6 -13 41 -41 34
-47 62 -12 51 12 -3 28 -11 35 -17 7 -5 16 -7 20 -3 4 4 -1 13 -11 21 -15 11
-15 14 -3 18 9 4 18 2 21 -3 16 -26 30 -7 30 40 0 28 -3 50 -7 50 -5 0 -8 5
-8 11 0 5 5 7 10 4 11 -7 14 8 3 18 -3 4 -12 -1 -19 -11 -12 -16 -13 -15 -14
5 0 27 -9 33 -36 23 -17 -7 -20 -14 -16 -35 5 -27 5 -27 -21 -10 -14 9 -30 14
-35 11 -5 -3 -22 8 -37 24 -16 17 -24 30 -17 30 6 0 15 -7 20 -16 5 -8 24 -19
43 -23 30 -7 35 -5 36 10 1 9 -5 20 -13 23 -8 3 -14 -1 -14 -9 0 -8 -6 -15
-13 -15 -15 0 -54 77 -49 97 2 7 -2 13 -8 13 -6 0 -9 4 -5 9 3 6 -2 14 -11 19
-16 9 -16 13 3 48 12 22 26 38 32 37 6 -2 11 4 11 12 0 18 -8 19 -43 3 -20
-10 -25 -18 -20 -33 6 -20 5 -20 -16 -1 -14 13 -35 20 -59 19 -20 -1 -39 2
-42 6 -3 4 -20 17 -37 30 -18 12 -33 27 -33 33 0 6 8 4 18 -5 24 -22 29 -21
36 7 4 18 11 23 28 21 64 -11 63 -11 66 18 3 23 5 25 18 13 8 -8 14 -19 14
-25z m1506 13 c16 -17 19 -24 9 -20 -9 3 -24 6 -32 6 -9 0 -13 3 -10 7 4 3 -1
12 -11 19 -16 12 -16 13 0 14 9 0 29 -12 44 -26z m-986 12 c0 -3 -4 -8 -10
-11 -5 -3 -10 -1 -10 4 0 6 5 11 10 11 6 0 10 -2 10 -4z m1080 -18 c0 -6 -6
-5 -15 2 -8 7 -15 14 -15 16 0 2 7 1 15 -2 8 -4 15 -11 15 -16z m-150 -3 c0
-8 -9 -15 -20 -15 -22 0 -27 15 -7 23 21 9 27 7 27 -8z m-955 -5 c3 -5 1 -10
-4 -10 -6 0 -11 5 -11 10 0 6 2 10 4 10 3 0 8 -4 11 -10z m85 -11 c0 -6 -9 -9
-20 -6 -10 3 -27 -1 -37 -9 -28 -21 -39 -16 -13 6 25 21 70 27 70 9z m220 7
c0 -3 -4 -8 -10 -11 -5 -3 -10 -1 -10 4 0 6 5 11 10 11 6 0 10 -2 10 -4z m776
-43 c-1 -24 -10 -30 -21 -14 -3 5 0 13 5 16 8 5 5 14 -7 27 -18 20 -18 21 3 8
13 -8 21 -23 20 -37z m-946 27 c0 -5 -4 -10 -10 -10 -5 0 -10 5 -10 10 0 6 5
10 10 10 6 0 10 -4 10 -10z m-44 -36 c-4 -9 -9 -15 -11 -12 -3 3 -3 13 1 22 4
9 9 15 11 12 3 -3 3 -13 -1 -22z m-56 6 c0 -5 -5 -10 -11 -10 -5 0 -7 5 -4 10
3 6 8 10 11 10 2 0 4 -4 4 -10z m96 -14 c2 -14 0 -15 -12 -5 -17 14 -19 32 -2
27 6 -2 12 -12 14 -22z m294 -1 c0 -8 -4 -15 -10 -15 -5 0 -10 -10 -10 -21 0
-18 -2 -20 -16 -8 -14 12 -14 14 0 25 9 6 16 16 16 23 0 6 5 11 10 11 6 0 10
-7 10 -15z m426 -32 c-4 -5 -14 1 -22 11 -21 30 -17 39 8 16 12 -11 18 -23 14
-27z m-91 27 c3 -5 -1 -10 -10 -10 -9 0 -13 5 -10 10 3 6 8 10 10 10 2 0 7 -4
10 -10z m-585 -14 c0 -3 -4 -8 -10 -11 -5 -3 -10 -1 -10 4 0 6 5 11 10 11 6 0
10 -2 10 -4z m70 0 c0 -3 -4 -8 -10 -11 -5 -3 -10 -1 -10 4 0 6 5 11 10 11 6
0 10 -2 10 -4z m226 -14 c-3 -5 -16 -12 -28 -15 l-23 -6 24 20 c23 19 39 20
27 1z m-356 -22 c0 -5 -5 -10 -11 -10 -5 0 -7 5 -4 10 3 6 8 10 11 10 2 0 4
-4 4 -10z m40 0 c0 -5 -4 -10 -10 -10 -5 0 -10 5 -10 10 0 6 5 10 10 10 6 0
10 -4 10 -10z m187 -12 c-3 -8 -6 -5 -6 6 -1 11 2 17 5 13 3 -3 4 -12 1 -19z
m543 -13 c0 -8 -4 -15 -10 -15 -5 0 -7 7 -4 15 4 8 8 15 10 15 2 0 4 -7 4 -15z
m-1382 -12 c-1 -10 2 -29 6 -43 6 -22 5 -23 -6 -9 -7 9 -20 14 -28 11 -12 -4
-13 -3 -2 10 7 9 10 23 6 32 -4 10 -1 16 9 16 9 0 15 -8 15 -17z m929 -15 c-3
-8 -6 -5 -6 6 -1 11 2 17 5 13 3 -3 4 -12 1 -19z m70 0 c-3 -8 -6 -5 -6 6 -1
11 2 17 5 13 3 -3 4 -12 1 -19z m148 12 c-3 -5 -10 -10 -16 -10 -5 0 -9 5 -9
10 0 6 7 10 16 10 8 0 12 -4 9 -10z m95 -10 c0 -5 -4 -10 -10 -10 -5 0 -10 5
-10 10 0 6 5 10 10 10 6 0 10 -4 10 -10z m-280 -40 c0 -5 -5 -10 -11 -10 -5 0
-7 5 -4 10 3 6 8 10 11 10 2 0 4 -4 4 -10z m-1070 -116 c0 -8 -4 -12 -10 -9
-5 3 -10 13 -10 21 0 8 5 12 10 9 6 -3 10 -13 10 -21z m545 -38 c19 -15 18
-15 -12 -5 -17 6 -34 17 -37 25 -6 16 12 9 49 -20z m-485 -40 c-13 -13 -35 9
-45 44 -7 25 -7 25 24 -4 21 -20 28 -33 21 -40z m59 14 c35 -43 35 -54 1 -17
-22 22 -44 57 -37 57 2 0 18 -18 36 -40z m170 23 c-4 -23 2 -43 11 -38 6 3 10
2 10 -4 0 -18 -16 -20 -38 -5 -25 17 -30 36 -7 28 11 -5 13 -2 9 10 -3 9 -1
16 5 16 6 0 10 -3 10 -7z m-29 -64 c11 -19 10 -20 -10 -9 -11 6 -18 15 -15 21
9 13 13 11 25 -12z m-1015 -14 c-11 -8 -32 -27 -47 -42 -16 -15 -28 -23 -28
-16 0 13 70 73 85 73 5 0 1 -7 -10 -15z m-135 -129 c0 -2 -8 -10 -17 -17 -16
-13 -17 -12 -4 4 13 16 21 21 21 13z m2123 -33 c-7 -2 -21 -2 -30 0 -10 3 -4
5 12 5 17 0 24 -2 18 -5z m-1081 -44 c27 -17 28 -19 8 -13 -13 3 -30 13 -38
20 -19 20 -7 17 30 -7z m1106 14 c-10 -2 -28 -2 -40 0 -13 2 -5 4 17 4 22 1
32 -1 23 -4z m-3 -33 c-8 -12 -72 -13 -79 -1 -3 5 15 9 40 9 26 1 42 -3 39 -8z
m66 -48 c-13 -2 -27 0 -32 5 -6 6 3 7 23 4 28 -4 29 -6 9 -9z m-3291 -1612 c0
-5 -4 -10 -10 -10 -5 0 -10 5 -10 10 0 6 5 10 10 10 6 0 10 -4 10 -10z"/>
<path d="M2423 7575 c0 -8 4 -15 8 -15 4 0 9 7 13 15 3 9 0 15 -8 15 -7 0 -13
-7 -13 -15z"/>
<path d="M1928 6373 c7 -3 16 -2 19 1 4 3 -2 6 -13 5 -11 0 -14 -3 -6 -6z"/>
<path d="M2008 6044 c2 -13 8 -24 13 -24 14 0 10 37 -4 43 -10 4 -13 -2 -9
-19z"/>
<path d="M4065 5111 c3 -6 -3 -15 -12 -21 -17 -11 -17 -11 0 -6 10 3 21 6 23
6 2 0 4 7 4 15 0 8 -5 15 -11 15 -5 0 -8 -4 -4 -9z"/>
<path d="M4095 5099 c-4 -6 -5 -12 -2 -15 2 -3 7 2 10 11 7 17 1 20 -8 4z"/>
<path d="M3650 5096 c0 -9 40 -13 46 -5 3 5 -6 9 -20 9 -14 0 -26 -2 -26 -4z"/>
<path d="M3715 5082 c6 -5 42 -12 80 -15 48 -4 65 -3 53 4 -23 13 -146 23
-133 11z"/>
<path d="M3930 5058 c-91 -9 -152 -10 -204 -2 -27 4 -36 3 -32 -5 5 -7 -3 -11
-21 -12 -25 -1 -24 -2 12 -14 49 -17 99 -19 90 -5 -4 7 11 10 42 10 78 -1 213
12 213 20 0 14 -23 16 -100 8z"/>
<path d="M4132 5059 c2 -6 7 -10 11 -10 4 1 16 -8 27 -19 11 -11 28 -20 38
-19 14 0 14 2 -3 8 -11 5 -29 18 -39 30 -20 22 -40 28 -34 10z"/>
<path d="M3848 5003 c7 -3 16 -2 19 1 4 3 -2 6 -13 5 -11 0 -14 -3 -6 -6z"/>
<path d="M3888 5003 c6 -2 18 -2 25 0 6 3 1 5 -13 5 -14 0 -19 -2 -12 -5z"/>
<path d="M3950 5000 c20 -13 50 -13 50 0 0 6 -15 10 -32 10 -25 0 -29 -3 -18
-10z"/>
<path d="M3520 4770 c0 -6 4 -10 9 -10 5 0 12 -8 14 -17 4 -14 5 -13 6 3 0 12
-6 24 -14 28 -8 3 -15 1 -15 -4z"/>
<path d="M4138 4543 c7 -3 16 -2 19 1 4 3 -2 6 -13 5 -11 0 -14 -3 -6 -6z"/>
<path d="M2810 5115 c0 -8 7 -15 15 -15 9 0 12 6 9 15 -4 8 -10 15 -15 15 -5
0 -9 -7 -9 -15z"/>
<path d="M2765 5110 c-3 -5 -1 -10 4 -10 6 0 11 5 11 10 0 6 -2 10 -4 10 -3 0
-8 -4 -11 -10z"/>
<path d="M2302 5074 c16 -15 85 -27 92 -16 2 4 -20 12 -50 18 -42 8 -51 7 -42
-2z"/>
<path d="M2315 4950 c-3 -5 -1 -10 4 -10 6 0 11 5 11 10 0 6 -2 10 -4 10 -3 0
-8 -4 -11 -10z"/>
<path d="M2852 4769 c2 -7 10 -15 17 -17 8 -3 12 1 9 9 -2 7 -10 15 -17 17 -8
3 -12 -1 -9 -9z"/>
<path d="M2100 4693 c0 -5 5 -15 10 -23 8 -12 10 -11 10 8 0 12 -4 22 -10 22
-5 0 -10 -3 -10 -7z"/>
<path d="M1790 4914 c0 -8 5 -12 10 -9 6 3 10 10 10 16 0 5 -4 9 -10 9 -5 0
-10 -7 -10 -16z"/>
<path d="M1440 4709 c0 -5 5 -7 10 -4 6 3 10 8 10 11 0 2 -4 4 -10 4 -5 0 -10
-5 -10 -11z"/>
<path d="M1533 4585 c-8 -22 6 -33 17 -15 13 20 12 30 0 30 -6 0 -13 -7 -17
-15z"/>
<path d="M2655 4450 c-3 -5 1 -10 9 -10 9 0 16 5 16 10 0 6 -4 10 -9 10 -6 0
-13 -4 -16 -10z"/>
<path d="M2181 4184 c0 -11 3 -14 6 -6 3 7 2 16 -1 19 -3 4 -6 -2 -5 -13z"/>
<path d="M3971 3971 c0 -7 -12 -24 -26 -36 -18 -17 -21 -25 -11 -28 25 -10 48
17 43 48 -2 17 -5 24 -6 16z"/>
<path d="M4011 3894 c0 -11 3 -14 6 -6 3 7 2 16 -1 19 -3 4 -6 -2 -5 -13z"/>
<path d="M3815 3870 c-3 -5 -2 -10 4 -10 5 0 13 5 16 10 3 6 2 10 -4 10 -5 0
-13 -4 -16 -10z"/>
<path d="M2561 3834 c0 -11 3 -14 6 -6 3 7 2 16 -1 19 -3 4 -6 -2 -5 -13z"/>
<path d="M2456 3748 c-6 -30 -2 -47 9 -36 11 10 17 68 8 68 -6 0 -13 -14 -17
-32z"/>
<path d="M3961 3734 c13 -16 29 -19 29 -5 0 5 -9 11 -21 14 -16 4 -18 3 -8 -9z"/>
<path d="M2347 3733 c-4 -3 -7 -18 -6 -32 1 -26 1 -25 10 3 9 31 7 41 -4 29z"/>
<path d="M3031 3723 c-18 -20 -4 -31 15 -11 9 9 12 18 7 21 -4 3 -14 -2 -22
-10z"/>
<path d="M3390 3730 c0 -5 5 -10 10 -10 6 0 10 5 10 10 0 6 -4 10 -10 10 -5 0
-10 -4 -10 -10z"/>
<path d="M2493 3691 c-12 -19 -8 -31 10 -31 5 0 7 7 4 15 -9 22 10 28 23 8 10
-17 11 -16 8 2 -4 26 -30 30 -45 6z"/>
<path d="M2756 3671 c-3 -5 7 -11 23 -13 21 -3 28 -1 24 9 -6 15 -39 18 -47 4z"/>
<path d="M2532 3635 c0 -16 2 -22 5 -12 2 9 2 23 0 30 -3 6 -5 -1 -5 -18z"/>
<path d="M2570 3645 c0 -8 -4 -15 -9 -15 -5 0 -11 -11 -13 -25 -6 -31 14 -33
41 -4 15 17 18 26 10 40 -12 23 -29 25 -29 4z"/>
<path d="M3075 3650 c-3 -5 1 -13 10 -16 22 -9 29 1 11 15 -10 8 -16 9 -21 1z"/>
<path d="M3175 3650 c-3 -5 1 -10 10 -10 9 0 13 5 10 10 -3 6 -8 10 -10 10 -2
0 -7 -4 -10 -10z"/>
<path d="M3790 3646 c0 -8 5 -18 10 -21 6 -3 10 3 10 14 0 12 -4 21 -10 21 -5
0 -10 -6 -10 -14z"/>
<path d="M3883 3630 c-13 -5 -23 -16 -23 -25 0 -21 17 -19 23 3 4 16 5 16 6 0
1 -18 21 -26 21 -9 0 5 3 16 6 25 7 18 0 19 -33 6z"/>
<path d="M3208 3613 c-3 -12 -16 -26 -28 -33 -12 -7 -20 -8 -17 -3 3 5 2 15
-3 23 -7 12 -14 12 -27 4 -10 -6 -35 -10 -55 -10 -34 2 -36 1 -20 -15 12 -11
19 -13 24 -5 5 6 8 0 9 -14 1 -18 3 -20 6 -7 3 13 10 16 21 11 10 -3 25 -6 34
-6 10 0 20 -3 23 -8 8 -13 45 1 45 17 0 13 3 13 18 2 15 -12 16 -12 5 2 -7 8
-16 26 -21 39 -8 23 -9 23 -14 3z"/>
<path d="M2983 3593 c25 -7 21 -22 -8 -29 -14 -4 -24 -11 -23 -16 3 -9 81 -58
92 -58 7 0 -1 56 -12 83 -9 21 -18 27 -39 26 -17 -1 -21 -3 -10 -6z"/>
<path d="M2673 3582 c-7 -4 -9 -13 -4 -21 6 -9 10 -7 14 8 3 12 4 21 4 21 -1
0 -7 -4 -14 -8z"/>
<path d="M2636 3561 c-4 -7 -5 -15 -2 -18 9 -9 19 4 14 18 -4 11 -6 11 -12 0z"/>
<path d="M2541 3541 c-10 -6 -10 -10 -1 -16 13 -8 24 -1 19 14 -3 6 -10 7 -18
2z"/>
<path d="M3848 3543 c6 -2 18 -2 25 0 6 3 1 5 -13 5 -14 0 -19 -2 -12 -5z"/>
<path d="M3144 3525 c-4 -9 -2 -21 3 -26 7 -7 12 -3 16 10 6 25 -11 39 -19 16z"/>
<path d="M3379 3522 c9 -16 6 -18 -20 -14 -37 5 -38 -3 -1 -16 23 -8 31 -7 39
7 9 14 7 20 -9 30 -17 11 -18 10 -9 -7z"/>
<path d="M3810 3530 c0 -5 5 -10 10 -10 6 0 10 5 10 10 0 6 -4 10 -10 10 -5 0
-10 -4 -10 -10z"/>
<path d="M3545 3510 c10 -11 24 -20 32 -20 9 0 7 6 -7 20 -11 11 -25 20 -32
20 -6 0 -3 -9 7 -20z"/>
<path d="M2714 3499 c-28 -14 -45 -61 -28 -77 7 -7 16 -12 21 -12 4 0 20 -12
35 -27 27 -26 28 -26 28 -5 0 12 -4 22 -8 22 -5 0 -14 11 -20 25 -8 18 -16 23
-29 18 -10 -3 -6 4 10 16 15 12 27 29 27 37 0 16 -7 17 -36 3z"/>
<path d="M3648 3503 c7 -3 16 -2 19 1 4 3 -2 6 -13 5 -11 0 -14 -3 -6 -6z"/>
<path d="M3835 3501 c-3 -5 -1 -12 4 -15 5 -3 11 1 15 9 6 16 -9 21 -19 6z"/>
<path d="M2600 3488 c0 -11 -5 -15 -14 -12 -8 3 -16 -3 -19 -15 -4 -17 -2 -18
14 -8 16 10 21 9 29 -3 8 -12 10 -12 10 5 0 11 -5 27 -10 35 -8 13 -10 13 -10
-2z"/>
<path d="M3626 3483 c-12 -12 28 -53 53 -54 l26 0 -24 -10 c-13 -5 -22 -12
-19 -14 3 -3 19 1 36 8 30 12 31 14 14 28 -25 22 -80 48 -86 42z"/>
<path d="M3296 3465 c4 -8 8 -15 10 -15 2 0 4 7 4 15 0 8 -4 15 -10 15 -5 0
-7 -7 -4 -15z"/>
<path d="M3420 3470 c0 -5 5 -10 11 -10 5 0 7 5 4 10 -3 6 -8 10 -11 10 -2 0
-4 -4 -4 -10z"/>
<path d="M3485 3470 c3 -5 8 -10 11 -10 2 0 4 5 4 10 0 6 -5 10 -11 10 -5 0
-7 -4 -4 -10z"/>
<path d="M3555 3460 c10 -32 13 -36 25 -24 7 7 3 17 -11 30 -22 19 -22 19 -14
-6z"/>
<path d="M3362 3441 c7 -11 16 -17 20 -15 5 3 2 12 -6 20 -21 20 -28 17 -14
-5z"/>
<path d="M3610 3450 c-8 -5 -12 -12 -9 -15 4 -3 12 1 19 10 14 17 11 19 -10 5z"/>
<path d="M3250 3422 c-13 -14 -12 -15 5 -9 11 5 22 3 27 -5 6 -10 8 -9 8 3 0
24 -22 29 -40 11z"/>
<path d="M3410 3431 c0 -6 5 -13 10 -16 6 -3 10 1 10 9 0 9 -4 16 -10 16 -5 0
-10 -4 -10 -9z"/>
<path d="M3475 3430 c-8 -13 4 -32 16 -25 12 8 12 35 0 35 -6 0 -13 -4 -16
-10z"/>
<path d="M2780 3426 c0 -2 7 -7 16 -10 8 -3 12 -2 9 4 -6 10 -25 14 -25 6z"/>
<path d="M2897 3423 c-10 -9 -9 -23 2 -23 5 0 11 7 15 15 5 15 -5 20 -17 8z"/>
<path d="M3317 3423 c-4 -3 -7 -11 -7 -17 0 -6 5 -4 10 4 8 13 11 12 24 -5 13
-17 15 -17 16 -4 0 9 -7 20 -16 23 -19 7 -19 7 -27 -1z"/>
<path d="M3515 3421 c-3 -5 -1 -12 5 -16 5 -3 10 1 10 9 0 18 -6 21 -15 7z"/>
<path d="M3575 3412 c-14 -9 -17 -52 -4 -52 5 0 9 3 10 8 0 4 2 17 5 30 4 24
4 25 -11 14z"/>
<path d="M2510 3376 c0 -9 5 -16 10 -16 6 0 10 4 10 9 0 6 -4 13 -10 16 -5 3
-10 -1 -10 -9z"/>
<path d="M2630 3379 c0 -5 5 -7 10 -4 6 3 10 8 10 11 0 2 -4 4 -10 4 -5 0 -10
-5 -10 -11z"/>
<path d="M3526 3366 c-7 -27 2 -53 11 -30 2 7 14 10 26 8 20 -4 20 -3 3 4 -11
5 -22 17 -26 27 -6 17 -8 15 -14 -9z"/>
<path d="M3713 3384 c-7 -3 -9 -12 -6 -20 3 -9 -1 -14 -11 -14 -9 0 -19 7 -22
15 -4 8 -13 15 -21 15 -9 0 -13 -6 -9 -15 4 -11 -2 -15 -20 -15 -16 0 -23 4
-18 12 5 7 3 8 -6 3 -10 -6 -9 -11 5 -22 33 -24 110 -12 118 19 5 16 9 18 26
9 11 -6 22 -7 25 -2 9 13 -37 24 -61 15z"/>
<path d="M2645 3349 c-5 -14 -2 -25 6 -30 18 -10 32 4 27 27 -5 26 -25 28 -33
3z"/>
<path d="M3176 3355 c4 -8 8 -15 10 -15 2 0 4 7 4 15 0 8 -4 15 -10 15 -5 0
-7 -7 -4 -15z"/>
<path d="M2864 3349 c-2 -4 0 -10 6 -14 5 -3 10 -3 10 2 0 4 5 1 10 -7 8 -12
10 -11 10 6 0 20 -25 29 -36 13z"/>
<path d="M2930 3340 c0 -11 2 -20 4 -20 2 0 6 9 9 20 3 11 1 20 -4 20 -5 0 -9
-9 -9 -20z"/>
<path d="M2476 3342 c-3 -5 1 -9 9 -9 8 0 12 4 9 9 -3 4 -7 8 -9 8 -2 0 -6 -4
-9 -8z"/>
<path d="M3735 3340 c-3 -5 1 -10 10 -10 9 0 13 5 10 10 -3 6 -8 10 -10 10 -2
0 -7 -4 -10 -10z"/>
<path d="M2580 3320 c0 -3 9 -11 20 -18 17 -11 20 -10 20 7 0 14 -6 19 -20 18
-11 -1 -20 -4 -20 -7z"/>
<path d="M2966 3314 c-5 -14 -4 -15 9 -4 17 14 19 20 6 20 -5 0 -12 -7 -15
-16z"/>
<path d="M2500 3294 c0 -14 3 -15 18 -3 9 7 19 15 21 16 2 2 -5 3 -17 3 -14 0
-22 -6 -22 -16z"/>
<path d="M3640 3299 c0 -5 5 -7 10 -4 6 3 10 8 10 11 0 2 -4 4 -10 4 -5 0 -10
-5 -10 -11z"/>
<path d="M2690 3290 c0 -5 -7 -10 -15 -10 -8 0 -15 -4 -15 -10 0 -5 9 -10 19
-10 11 0 26 -2 34 -5 16 -7 20 26 3 37 -15 11 -26 10 -26 -2z"/>
<path d="M3490 3290 c0 -5 7 -10 15 -10 8 0 15 5 15 10 0 6 -7 10 -15 10 -8 0
-15 -4 -15 -10z"/>
<path d="M2574 3271 c0 -11 4 -17 8 -15 4 3 8 12 8 20 0 8 -4 14 -8 14 -4 0
-8 -9 -8 -19z"/>
<path d="M2890 3271 c0 -5 7 -11 14 -14 10 -4 13 -1 9 9 -6 15 -23 19 -23 5z"/>
<path d="M3126 3261 c-3 -4 6 -6 19 -3 14 2 25 6 25 8 0 8 -39 4 -44 -5z"/>
<path d="M2985 3216 c-25 -20 -27 -25 -15 -37 8 -8 32 -14 53 -15 36 -1 37 0
16 11 -20 11 -20 13 -5 22 16 9 15 10 -1 26 -17 15 -21 15 -48 -7z"/>
<path d="M2880 3210 c0 -29 11 -50 25 -50 21 0 14 63 -7 66 -12 1 -18 -4 -18
-16z"/>
<path d="M3275 3200 c3 -5 8 -10 11 -10 2 0 4 5 4 10 0 6 -5 10 -11 10 -5 0
-7 -4 -4 -10z"/>
<path d="M3547 3197 c-4 -10 2 -14 19 -14 14 0 23 4 21 11 -6 17 -34 19 -40 3z"/>
<path d="M3130 3190 c0 -5 5 -10 10 -10 6 0 10 5 10 10 0 6 -4 10 -10 10 -5 0
-10 -4 -10 -10z"/>
<path d="M2760 3170 c0 -5 5 -10 10 -10 6 0 10 5 10 10 0 6 -4 10 -10 10 -5 0
-10 -4 -10 -10z"/>
<path d="M2940 3143 c0 -20 -3 -24 -9 -14 -5 7 -14 10 -20 7 -12 -8 -15 -36
-3 -36 23 1 51 14 56 27 4 9 2 11 -6 7 -7 -5 -9 0 -6 14 4 12 2 22 -3 22 -5 0
-9 -12 -9 -27z"/>
<path d="M3003 3138 c-22 -29 -23 -36 -3 -31 11 3 20 11 20 18 0 7 6 16 13 18
7 4 6 6 -4 6 -9 1 -21 -5 -26 -11z"/>
<path d="M3068 3143 c-24 -6 -23 -23 2 -23 11 0 20 7 20 15 0 8 -1 14 -2 14
-2 -1 -11 -3 -20 -6z"/>
<path d="M3680 3141 c0 -11 49 -21 55 -11 5 9 -18 20 -41 20 -8 0 -14 -4 -14
-9z"/>
<path d="M3240 3110 c0 -5 5 -10 10 -10 6 0 10 5 10 10 0 6 -4 10 -10 10 -5 0
-10 -4 -10 -10z"/>
<path d="M2923 3087 c-3 -5 -2 -11 1 -14 3 -3 1 -12 -5 -20 -9 -10 -15 -10
-25 -2 -9 8 -15 5 -24 -10 -6 -12 -7 -21 -3 -21 4 0 18 -3 31 -6 16 -5 22 -2
22 10 0 15 17 21 49 16 9 -1 12 4 7 15 -3 9 -6 23 -6 30 0 15 -38 16 -47 2z"/>
<path d="M3005 3089 c-8 -12 8 -16 35 -9 l25 6 -28 6 c-15 3 -30 2 -32 -3z"/>
<path d="M3510 3091 c0 -7 -4 -10 -9 -6 -13 8 -24 -12 -14 -27 4 -7 8 -17 8
-23 0 -9 55 -9 64 1 3 2 0 9 -7 16 -8 8 -15 8 -25 0 -19 -16 -29 -4 -16 20 6
11 8 22 5 26 -3 3 -6 0 -6 -7z"/>
<path d="M3600 3089 c0 -5 5 -7 10 -4 6 3 10 8 10 11 0 2 -4 4 -10 4 -5 0 -10
-5 -10 -11z"/>
<path d="M3580 3060 c0 -5 5 -10 10 -10 6 0 10 5 10 10 0 6 -4 10 -10 10 -5 0
-10 -4 -10 -10z"/>
<path d="M3350 3050 c-9 -6 -10 -10 -3 -10 6 0 15 5 18 10 8 12 4 12 -15 0z"/>
<path d="M3225 3040 c-3 -5 -1 -10 4 -10 6 0 11 5 11 10 0 6 -2 10 -4 10 -3 0
-8 -4 -11 -10z"/>
<path d="M3260 3040 c0 -5 5 -10 11 -10 5 0 7 5 4 10 -3 6 -8 10 -11 10 -2 0
-4 -4 -4 -10z"/>
<path d="M3393 3025 c0 -8 9 -15 20 -15 10 0 17 5 15 13 -7 18 -35 20 -35 2z"/>
<path d="M3055 3020 c3 -5 8 -10 11 -10 2 0 4 5 4 10 0 6 -5 10 -11 10 -5 0
-7 -4 -4 -10z"/>
<path d="M3475 2970 c-3 -5 -1 -10 4 -10 6 0 11 5 11 10 0 6 -2 10 -4 10 -3 0
-8 -4 -11 -10z"/>
<path d="M3371 2924 c0 -11 3 -14 6 -6 3 7 2 16 -1 19 -3 4 -6 -2 -5 -13z"/>
<path d="M2260 3370 c0 -5 7 -10 15 -10 8 0 15 5 15 10 0 6 -7 10 -15 10 -8 0
-15 -4 -15 -10z"/>
<path d="M2080 2962 c0 -13 23 -32 38 -32 7 0 10 4 7 10 -9 14 -45 32 -45 22z"/>
<path d="M2230 2796 c0 -13 24 -56 32 -56 16 0 8 35 -12 48 -11 7 -20 10 -20
8z"/>
<path d="M2310 2721 c0 -12 5 -21 10 -21 6 0 10 6 10 14 0 8 -4 18 -10 21 -5
3 -10 -3 -10 -14z"/>
<path d="M2400 2700 c-9 -6 -10 -10 -3 -10 6 0 15 5 18 10 8 12 4 12 -15 0z"/>
<path d="M2540 2620 c0 -5 5 -10 11 -10 5 0 7 5 4 10 -3 6 -8 10 -11 10 -2 0
-4 -4 -4 -10z"/>
<path d="M2567 2586 c-4 -10 -1 -13 8 -9 8 3 12 9 9 14 -7 12 -11 11 -17 -5z"/>
<path d="M2435 2570 c3 -5 8 -10 11 -10 2 0 4 5 4 10 0 6 -5 10 -11 10 -5 0
-7 -4 -4 -10z"/>
<path d="M2497 2564 c-11 -11 5 -33 20 -27 8 3 19 0 23 -8 5 -7 12 -10 16 -6
4 4 -1 16 -11 27 -18 20 -36 25 -48 14z"/>
<path d="M2450 2500 c-22 -6 -23 -8 -7 -15 11 -4 23 -3 30 4 15 15 7 19 -23
11z"/>
<path d="M2560 2491 c0 -5 5 -13 10 -16 6 -3 10 -2 10 4 0 5 -4 13 -10 16 -5
3 -10 2 -10 -4z"/>
<path d="M2800 2449 c0 -5 5 -7 10 -4 6 3 10 8 10 11 0 2 -4 4 -10 4 -5 0 -10
-5 -10 -11z"/>
<path d="M2415 2410 c3 -5 16 -15 28 -21 22 -12 22 -12 3 10 -19 21 -43 30
-31 11z"/>
<path d="M2300 2400 c0 -5 4 -10 9 -10 5 0 18 -3 28 -7 16 -6 16 -5 4 10 -15
19 -41 23 -41 7z"/>
<path d="M3050 2385 c0 -8 4 -15 10 -15 5 0 7 7 4 15 -4 8 -8 15 -10 15 -2 0
-4 -7 -4 -15z"/>
<path d="M2382 2378 c5 -15 28 -23 28 -10 0 5 -7 13 -16 16 -10 4 -14 1 -12
-6z"/>
<path d="M3750 2334 c0 -14 4 -23 10 -19 6 3 10 15 10 26 0 10 -4 19 -10 19
-5 0 -10 -12 -10 -26z"/>
<path d="M2392 2326 c7 -8 15 -12 17 -11 5 6 -10 25 -20 25 -5 0 -4 -6 3 -14z"/>
<path d="M3861 2324 c0 -11 3 -14 6 -6 3 7 2 16 -1 19 -3 4 -6 -2 -5 -13z"/>
<path d="M2440 2321 c0 -5 5 -13 10 -16 6 -3 10 -2 10 4 0 5 -4 13 -10 16 -5
3 -10 2 -10 -4z"/>
<path d="M2511 2284 c0 -11 3 -14 6 -6 3 7 2 16 -1 19 -3 4 -6 -2 -5 -13z"/>
<path d="M2366 2281 c-3 -4 7 -14 22 -20 27 -13 27 -13 8 8 -22 24 -23 24 -30
12z"/>
<path d="M2568 2233 c7 -3 16 -2 19 1 4 3 -2 6 -13 5 -11 0 -14 -3 -6 -6z"/>
<path d="M3458 2223 c7 -3 16 -2 19 1 4 3 -2 6 -13 5 -11 0 -14 -3 -6 -6z"/>
<path d="M3310 2180 c0 -5 4 -10 9 -10 6 0 13 5 16 10 3 6 -1 10 -9 10 -9 0
-16 -4 -16 -10z"/>
<path d="M3785 2100 c-3 -5 -1 -10 4 -10 6 0 11 5 11 10 0 6 -2 10 -4 10 -3 0
-8 -4 -11 -10z"/>
<path d="M3920 7576 c0 -2 8 -10 18 -17 15 -13 16 -12 3 4 -13 16 -21 21 -21
13z"/>
<path d="M1192 6610 c0 -14 2 -19 5 -12 2 6 2 18 0 25 -3 6 -5 1 -5 -13z"/>
<path d="M4382 6526 c7 -8 15 -12 17 -11 5 6 -10 25 -20 25 -5 0 -4 -6 3 -14z"/>
<path d="M4361 3874 c0 -11 3 -14 6 -6 3 7 2 16 -1 19 -3 4 -6 -2 -5 -13z"/>
<path d="M260 2759 c-80 -4 -171 -7 -202 -8 l-58 -1 0 -140 c0 -77 4 -140 8
-140 10 0 473 277 487 291 7 7 -7 9 -40 7 -27 -2 -115 -6 -195 -9z"/>
</g>
</svg>
